<?xml version="1.0" standalone="no"?>
<svg xmlns="http://www.w3.org/2000/svg" xmlns:xlink="http://www.w3.org/1999/xlink" width="798pt" height="1473pt" viewBox="0.00 0.00 798.28 1473.00">
<g id="graph0" class="graph" transform="translate(-79.8891618847033,1629.9666643493756) scale(1.2078991448958718)" data-name="G">

<polygon fill="#2e3e56" stroke="none" points="-4,4 -4,-1469 794.28,-1469 794.28,4 -4,4" style=""/>
<g id="clust1" class="cluster" data-name="clusterAurumV2core">

<path fill="#445773" stroke="#445773" d="M52.71,-8C52.71,-8 770.28,-8 770.28,-8 776.28,-8 782.28,-14 782.28,-20 782.28,-20 782.28,-397 782.28,-397 782.28,-403 776.28,-409 770.28,-409 770.28,-409 52.71,-409 52.71,-409 46.71,-409 40.71,-403 40.71,-397 40.71,-397 40.71,-20 40.71,-20 40.71,-14 46.71,-8 52.71,-8" style=""/>
<text text-anchor="middle" x="411.49" y="-392.4" font-family="Times,serif" font-size="14.00" fill="#f0f0f0" style="">AurumV2core</text>
</g>
<g id="clust2" class="cluster" data-name="clusterAurumAdmin">

<path fill="#445773" stroke="#445773" d="M40.93,-417C40.93,-417 228.77,-417 228.77,-417 234.77,-417 240.77,-423 240.77,-429 240.77,-429 240.77,-644 240.77,-644 240.77,-650 234.77,-656 228.77,-656 228.77,-656 40.93,-656 40.93,-656 34.93,-656 28.93,-650 28.93,-644 28.93,-644 28.93,-429 28.93,-429 28.93,-423 34.93,-417 40.93,-417" style=""/>
<text text-anchor="middle" x="134.85" y="-639.4" font-family="Times,serif" font-size="14.00" fill="#f0f0f0" style="">AurumAdmin</text>
</g>
<g id="clust3" class="cluster" data-name="clusterNFTPrice">

<path fill="#445773" stroke="#445773" d="M40.92,-664C40.92,-664 765.96,-664 765.96,-664 771.96,-664 777.96,-670 777.96,-676 777.96,-676 777.96,-837 777.96,-837 777.96,-843 771.96,-849 765.96,-849 765.96,-849 40.92,-849 40.92,-849 34.92,-849 28.92,-843 28.92,-837 28.92,-837 28.92,-676 28.92,-676 28.92,-670 34.92,-664 40.92,-664" style=""/>
<text text-anchor="middle" x="403.44" y="-832.4" font-family="Times,serif" font-size="14.00" fill="#f0f0f0" style="">NFTPrice</text>
</g>
<g id="clust4" class="cluster" data-name="clusterNFTEscrow">

<path fill="#445773" stroke="#445773" d="M20,-1081C20,-1081 476.2,-1081 476.2,-1081 482.2,-1081 488.2,-1087 488.2,-1093 488.2,-1093 488.2,-1308 488.2,-1308 488.2,-1314 482.2,-1320 476.2,-1320 476.2,-1320 20,-1320 20,-1320 14,-1320 8,-1314 8,-1308 8,-1308 8,-1093 8,-1093 8,-1087 14,-1081 20,-1081" style=""/>
<text text-anchor="middle" x="248.1" y="-1303.4" font-family="Times,serif" font-size="14.00" fill="#f0f0f0" style="">NFTEscrow</text>
</g>
<g id="clust5" class="cluster" data-name="clusterERC721">

<path fill="#3b4b63" stroke="#e8726d" stroke-dasharray="5,2" d="M367.2,-525C367.2,-525 449.92,-525 449.92,-525 455.92,-525 461.92,-531 461.92,-537 461.92,-537 461.92,-644 461.92,-644 461.92,-650 455.92,-656 449.92,-656 449.92,-656 367.2,-656 367.2,-656 361.2,-656 355.2,-650 355.2,-644 355.2,-644 355.2,-537 355.2,-537 355.2,-531 361.2,-525 367.2,-525" style=""/>
<text text-anchor="middle" x="408.56" y="-639.4" font-family="Times,serif" font-size="14.00" fill="#f0f0f0" style="">ERC721</text>
</g>
<g id="clust6" class="cluster" data-name="clusterAggregatorV3Interface">

<path fill="#3b4b63" stroke="#e8726d" stroke-dasharray="5,2" d="M597.44,-579C597.44,-579 740.25,-579 740.25,-579 746.25,-579 752.25,-585 752.25,-591 752.25,-591 752.25,-644 752.25,-644 752.25,-650 746.25,-656 740.25,-656 740.25,-656 597.44,-656 597.44,-656 591.44,-656 585.44,-650 585.44,-644 585.44,-644 585.44,-591 585.44,-591 585.44,-585 591.44,-579 597.44,-579" style=""/>
<text text-anchor="middle" x="668.84" y="-639.4" font-family="Times,serif" font-size="14.00" fill="#f0f0f0" style="">AggregatorV3Interface</text>
</g>
<g id="clust7" class="cluster" data-name="clusterIERC721">

<path fill="#3b4b63" stroke="#e8726d" stroke-dasharray="5,2" d="M361.84,-942C361.84,-942 455.27,-942 455.27,-942 461.27,-942 467.27,-948 467.27,-954 467.27,-954 467.27,-1061 467.27,-1061 467.27,-1067 461.27,-1073 455.27,-1073 455.27,-1073 361.84,-1073 361.84,-1073 355.84,-1073 349.84,-1067 349.84,-1061 349.84,-1061 349.84,-954 349.84,-954 349.84,-948 355.84,-942 361.84,-942" style=""/>
<text text-anchor="middle" x="408.56" y="-1056.4" font-family="Times,serif" font-size="14.00" fill="#f0f0f0" style="">IERC721</text>
</g>
<g id="clust8" class="cluster" data-name="clustertokenContract_">

<path fill="#3b4b63" stroke="#e8726d" stroke-dasharray="5,2" d="M369.56,-857C369.56,-857 447.56,-857 447.56,-857 453.56,-857 459.56,-863 459.56,-869 459.56,-869 459.56,-922 459.56,-922 459.56,-928 453.56,-934 447.56,-934 447.56,-934 369.56,-934 369.56,-934 363.56,-934 357.56,-928 357.56,-922 357.56,-922 357.56,-869 357.56,-869 357.56,-863 363.56,-857 369.56,-857" style=""/>
<text text-anchor="middle" x="408.56" y="-917.4" font-family="Times,serif" font-size="14.00" fill="#f0f0f0" style="">tokenContract_</text>
</g>
<g id="clust9" class="cluster" data-name="cluster_01">

<polygon fill="#2e3e56" stroke="black" points="61.85,-1328 61.85,-1457 443.56,-1457 443.56,-1328 61.85,-1328" style=""/>
<text text-anchor="middle" x="252.7" y="-1440.4" font-family="Times,serif" font-size="14.00" style="">Legend</text>
</g>
<!-- AurumV2core.&lt;Constructor&gt; -->
<g id="node1" class="node" pointer-events="visible" data-name="AurumV2core.&lt;Constructor&gt;">

<ellipse fill="#ff9797" stroke="brown" stroke-width="3" cx="134.85" cy="-358" rx="67.55" ry="18" style=""/>
<text text-anchor="middle" x="134.85" y="-353.8" font-family="Times,serif" font-size="14.00" style="">&lt;Constructor&gt;</text>
</g>
<!-- AurumV2core.&lt;Fallback&gt; -->
<g id="node2" class="node" pointer-events="visible" data-name="AurumV2core.&lt;Fallback&gt;">

<ellipse fill="#ffbdb9" stroke="brown" stroke-width="3" cx="134.85" cy="-304" rx="55.36" ry="18" style=""/>
<text text-anchor="middle" x="134.85" y="-299.8" font-family="Times,serif" font-size="14.00" style="">&lt;Fallback&gt;</text>
</g>
<!-- AurumV2core.&lt;Receive Ether&gt; -->
<g id="node3" class="node" pointer-events="visible" data-name="AurumV2core.&lt;Receive Ether&gt;">

<ellipse fill="#ffbdb9" stroke="brown" stroke-width="3" cx="134.85" cy="-250" rx="76.21" ry="18" style=""/>
<text text-anchor="middle" x="134.85" y="-245.8" font-family="Times,serif" font-size="14.00" style="">&lt;Receive Ether&gt;</text>
</g>
<!-- AurumV2core.depositToPool -->
<g id="node4" class="node" pointer-events="visible" data-name="AurumV2core.depositToPool">

<ellipse fill="#ffbdb9" stroke="brown" stroke-width="3" cx="134.85" cy="-196" rx="67.24" ry="18" style=""/>
<text text-anchor="middle" x="134.85" y="-191.8" font-family="Times,serif" font-size="14.00" style="">depositToPool</text>
</g>
<!-- AurumV2core.calculateInterest -->
<g id="node9" class="node" pointer-events="visible" data-name="AurumV2core.calculateInterest">

<ellipse fill="#edad56" stroke="#edad56" stroke-width="3" cx="408.56" cy="-304" rx="74.1" ry="18" style=""/>
<text text-anchor="middle" x="408.56" y="-299.8" font-family="Times,serif" font-size="14.00" style="">calculateInterest</text>
</g>
<!-- AurumV2core.depositToPool&#45;&gt;AurumV2core.calculateInterest -->
<g id="edge1" class="edge" data-name="AurumV2core.depositToPool-&gt;AurumV2core.calculateInterest">

<path fill="none" stroke="#1bc6a6" stroke-width="2" d="M200.33,-201.74C218.76,-205.68 238.07,-212.21 253.7,-223 277.44,-239.38 265.96,-260.62 289.7,-277 300.51,-284.45 313.06,-289.88 325.87,-293.82" style=""/>
<polygon fill="#1bc6a6" stroke="#1bc6a6" stroke-width="2" points="324.69,-297.12 335.25,-296.36 326.52,-290.37 324.69,-297.12" style=""/>
</g>
<!-- AurumV2core.withdrawFromPool -->
<g id="node5" class="node" pointer-events="visible" data-name="AurumV2core.withdrawFromPool">

<ellipse fill="#ffbdb9" stroke="#ffbdb9" stroke-width="3" cx="134.85" cy="-142" rx="86.29" ry="18" style=""/>
<text text-anchor="middle" x="134.85" y="-137.8" font-family="Times,serif" font-size="14.00" style="">withdrawFromPool</text>
</g>
<!-- AurumV2core.withdrawFromPool&#45;&gt;AurumV2core.calculateInterest -->
<g id="edge2" class="edge" data-name="AurumV2core.withdrawFromPool-&gt;AurumV2core.calculateInterest">

<path fill="none" stroke="#1bc6a6" stroke-width="2" d="M216.69,-148.96C230.26,-153.19 243.29,-159.55 253.7,-169 291.17,-203.01 252.24,-242.99 289.7,-277 299.15,-285.57 310.74,-291.6 322.94,-295.8" style=""/>
<polygon fill="#1bc6a6" stroke="#1bc6a6" stroke-width="2" points="321.8,-299.11 332.38,-298.57 323.77,-292.39 321.8,-299.11" style=""/>
</g>
<!-- AurumV2core.payable -->
<g id="node10" class="node" pointer-events="visible" data-name="AurumV2core.payable">

<ellipse fill="#edad56" stroke="#edad56" stroke-width="3" cx="408.56" cy="-250" rx="41.13" ry="18" style=""/>
<text text-anchor="middle" x="408.56" y="-245.8" font-family="Times,serif" font-size="14.00" style="">payable</text>
</g>
<!-- AurumV2core.withdrawFromPool&#45;&gt;AurumV2core.payable -->
<g id="edge3" class="edge" data-name="AurumV2core.withdrawFromPool-&gt;AurumV2core.payable">

<path fill="none" stroke="#1bc6a6" stroke-width="2" d="M212.94,-150.83C227.32,-154.85 241.61,-160.66 253.7,-169 277.44,-185.38 265.96,-206.62 289.7,-223 308.39,-235.89 332.33,-242.71 353.74,-246.29" style=""/>
<polygon fill="#1bc6a6" stroke="#1bc6a6" stroke-width="2" points="352.94,-249.71 363.34,-247.65 353.93,-242.78 352.94,-249.71" style=""/>
</g>
<!-- AurumV2core.ValueTransferFailed -->
<g id="node11" class="node" pointer-events="visible" data-name="AurumV2core.ValueTransferFailed">

<ellipse fill="#edad56" stroke="#edad56" stroke-width="3" cx="408.56" cy="-196" rx="90.87" ry="18" style=""/>
<text text-anchor="middle" x="408.56" y="-191.8" font-family="Times,serif" font-size="14.00" style="">ValueTransferFailed</text>
</g>
<!-- AurumV2core.withdrawFromPool&#45;&gt;AurumV2core.ValueTransferFailed -->
<g id="edge4" class="edge" data-name="AurumV2core.withdrawFromPool-&gt;AurumV2core.ValueTransferFailed">

<path fill="none" stroke="#1bc6a6" stroke-width="2" d="M200.59,-154.87C238.91,-162.48 287.75,-172.19 328.36,-180.26" style=""/>
<polygon fill="#1bc6a6" stroke="#1bc6a6" stroke-width="2" points="327.5,-183.66 337.99,-182.17 328.86,-176.79 327.5,-183.66" style=""/>
</g>
<!-- AurumV2core.borrow -->
<g id="node6" class="node" pointer-events="visible" data-name="AurumV2core.borrow">

<ellipse fill="#ffbdb9" stroke="brown" stroke-width="3" cx="134.85" cy="-88" rx="38.86" ry="18" style=""/>
<text text-anchor="middle" x="134.85" y="-83.8" font-family="Times,serif" font-size="14.00" style="">borrow</text>
</g>
<!-- AurumV2core.getNftCollateralValue -->
<g id="node8" class="node" pointer-events="visible" data-name="AurumV2core.getNftCollateralValue">

<ellipse fill="#edad56" stroke="#edad56" stroke-width="3" cx="408.56" cy="-142" rx="96.68" ry="18" style=""/>
<text text-anchor="middle" x="408.56" y="-137.8" font-family="Times,serif" font-size="14.00" style="">getNftCollateralValue</text>
</g>
<!-- AurumV2core.borrow&#45;&gt;AurumV2core.getNftCollateralValue -->
<g id="edge5" class="edge" data-name="AurumV2core.borrow-&gt;AurumV2core.getNftCollateralValue">

<path fill="none" stroke="#1bc6a6" stroke-width="2" d="M172.21,-95.23C211.34,-103 274.84,-115.62 326.02,-125.79" style=""/>
<polygon fill="#1bc6a6" stroke="#1bc6a6" stroke-width="2" points="325.28,-129.22 335.77,-127.73 326.65,-122.35 325.28,-129.22" style=""/>
</g>
<!-- AurumV2core.borrow&#45;&gt;AurumV2core.calculateInterest -->
<g id="edge6" class="edge" data-name="AurumV2core.borrow-&gt;AurumV2core.calculateInterest">

<path fill="none" stroke="#1bc6a6" stroke-width="2" d="M174.87,-86.82C200.64,-88.21 233.29,-94.45 253.7,-115 305.69,-167.32 237.72,-224.68 289.7,-277 298.69,-286.05 310.05,-292.32 322.15,-296.63" style=""/>
<polygon fill="#1bc6a6" stroke="#1bc6a6" stroke-width="2" points="320.95,-299.92 331.53,-299.44 322.96,-293.22 320.95,-299.92" style=""/>
</g>
<!-- AurumV2core.borrow&#45;&gt;AurumV2core.payable -->
<g id="edge8" class="edge" data-name="AurumV2core.borrow-&gt;AurumV2core.payable">

<path fill="none" stroke="#1bc6a6" stroke-width="2" d="M175.05,-87.57C200.39,-89.34 232.49,-95.74 253.7,-115 291.17,-149.01 252.24,-188.99 289.7,-223 306.92,-238.63 331.3,-245.79 353.42,-248.88" style=""/>
<polygon fill="#1bc6a6" stroke="#1bc6a6" stroke-width="2" points="352.78,-252.33 363.1,-249.94 353.54,-245.37 352.78,-252.33" style=""/>
</g>
<!-- AurumV2core.borrow&#45;&gt;AurumV2core.ValueTransferFailed -->
<g id="edge9" class="edge" data-name="AurumV2core.borrow-&gt;AurumV2core.ValueTransferFailed">

<path fill="none" stroke="#1bc6a6" stroke-width="2" d="M174.86,-89.67C199.35,-92.38 230.55,-99.03 253.7,-115 277.44,-131.38 265.96,-152.62 289.7,-169 297.63,-174.47 306.51,-178.85 315.73,-182.35" style=""/>
<polygon fill="#1bc6a6" stroke="#1bc6a6" stroke-width="2" points="314.54,-185.64 325.14,-185.5 316.77,-179 314.54,-185.64" style=""/>
</g>
<!-- AurumV2core.depositERC721Collateral -->
<g id="node12" class="node" pointer-events="visible" data-name="AurumV2core.depositERC721Collateral">

<ellipse fill="#edad56" stroke="#edad56" stroke-width="3" cx="408.56" cy="-88" rx="110.05" ry="18" style=""/>
<text text-anchor="middle" x="408.56" y="-83.8" font-family="Times,serif" font-size="14.00" style="">depositERC721Collateral</text>
</g>
<!-- AurumV2core.borrow&#45;&gt;AurumV2core.depositERC721Collateral -->
<g id="edge7" class="edge" data-name="AurumV2core.borrow-&gt;AurumV2core.depositERC721Collateral">

<path fill="none" stroke="#1bc6a6" stroke-width="2" d="M175.07,-88C203.85,-88 244.63,-88 284.01,-88" style=""/>
<polygon fill="#1bc6a6" stroke="#1bc6a6" stroke-width="2" points="283.99,-91.5 293.99,-88 283.99,-84.5 283.99,-91.5" style=""/>
</g>
<!-- AurumV2core.repay -->
<g id="node7" class="node" pointer-events="visible" data-name="AurumV2core.repay">

<ellipse fill="#ffbdb9" stroke="brown" stroke-width="3" cx="134.85" cy="-34" rx="32.46" ry="18" style=""/>
<text text-anchor="middle" x="134.85" y="-29.8" font-family="Times,serif" font-size="14.00" style="">repay</text>
</g>
<!-- AurumV2core.withdrawERC721Collateral -->
<g id="node13" class="node" pointer-events="visible" data-name="AurumV2core.withdrawERC721Collateral">

<ellipse fill="#edad56" stroke="#edad56" stroke-width="3" cx="408.56" cy="-34" rx="118.7" ry="18" style=""/>
<text text-anchor="middle" x="408.56" y="-29.8" font-family="Times,serif" font-size="14.00" style="">withdrawERC721Collateral</text>
</g>
<!-- AurumV2core.repay&#45;&gt;AurumV2core.withdrawERC721Collateral -->
<g id="edge10" class="edge" data-name="AurumV2core.repay-&gt;AurumV2core.withdrawERC721Collateral">

<path fill="none" stroke="#1bc6a6" stroke-width="2" d="M168.63,-34C195.63,-34 235.8,-34 275.54,-34" style=""/>
<polygon fill="#1bc6a6" stroke="#1bc6a6" stroke-width="2" points="275.39,-37.5 285.39,-34 275.39,-30.5 275.39,-37.5" style=""/>
</g>
<!-- AurumV2core.getNFTPrice -->
<g id="node14" class="node" pointer-events="visible" data-name="AurumV2core.getNFTPrice">

<ellipse fill="#edad56" stroke="#edad56" stroke-width="3" cx="668.84" cy="-61" rx="60.84" ry="18" style=""/>
<text text-anchor="middle" x="668.84" y="-56.8" font-family="Times,serif" font-size="14.00" style="">getNFTPrice</text>
</g>
<!-- AurumV2core.getNftCollateralValue&#45;&gt;AurumV2core.getNFTPrice -->
<g id="edge11" class="edge" data-name="AurumV2core.getNftCollateralValue-&gt;AurumV2core.getNFTPrice">

<path fill="none" stroke="#1bc6a6" stroke-width="2" d="M484.68,-129.74C499.23,-126 514.08,-121.18 527.41,-115 545.55,-106.58 545.38,-96.67 563.41,-88 575.49,-82.19 588.99,-77.51 602.16,-73.8" style=""/>
<polygon fill="#1bc6a6" stroke="#1bc6a6" stroke-width="2" points="602.93,-77.22 611.71,-71.29 601.15,-70.45 602.93,-77.22" style=""/>
</g>
<!-- AurumV2core.IERC165 -->
<g id="node15" class="node" pointer-events="visible" data-name="AurumV2core.IERC165">

<ellipse fill="#edad56" stroke="#edad56" stroke-width="3" cx="668.84" cy="-115" rx="47.54" ry="18" style=""/>
<text text-anchor="middle" x="668.84" y="-110.8" font-family="Times,serif" font-size="14.00" style="">IERC165</text>
</g>
<!-- AurumV2core.getNftCollateralValue&#45;&gt;AurumV2core.IERC165 -->
<g id="edge12" class="edge" data-name="AurumV2core.getNftCollateralValue-&gt;AurumV2core.IERC165">

<path fill="none" stroke="#1bc6a6" stroke-width="2" d="M495.56,-133.01C532.74,-129.12 575.32,-124.67 608.84,-121.17" style=""/>
<polygon fill="#1bc6a6" stroke="#1bc6a6" stroke-width="2" points="609.08,-124.66 618.66,-120.14 608.35,-117.7 609.08,-124.66" style=""/>
</g>
<!-- AurumV2core.type -->
<g id="node16" class="node" pointer-events="visible" data-name="AurumV2core.type">

<ellipse fill="#edad56" stroke="#edad56" stroke-width="3" cx="668.84" cy="-169" rx="27.83" ry="18" style=""/>
<text text-anchor="middle" x="668.84" y="-164.8" font-family="Times,serif" font-size="14.00" style="">type</text>
</g>
<!-- AurumV2core.getNftCollateralValue&#45;&gt;AurumV2core.type -->
<g id="edge13" class="edge" data-name="AurumV2core.getNftCollateralValue-&gt;AurumV2core.type">

<path fill="none" stroke="#1bc6a6" stroke-width="2" d="M495.56,-150.99C540.07,-155.64 592.29,-161.1 627.48,-164.78" style=""/>
<polygon fill="#1bc6a6" stroke="#1bc6a6" stroke-width="2" points="626.76,-168.22 637.07,-165.78 627.48,-161.26 626.76,-168.22" style=""/>
</g>
<!-- AurumV2core.UnsupportedTokenType -->
<g id="node17" class="node" pointer-events="visible" data-name="AurumV2core.UnsupportedTokenType">

<ellipse fill="#edad56" stroke="#edad56" stroke-width="3" cx="668.84" cy="-223" rx="105.37" ry="18" style=""/>
<text text-anchor="middle" x="668.84" y="-218.8" font-family="Times,serif" font-size="14.00" style="">UnsupportedTokenType</text>
</g>
<!-- AurumV2core.getNftCollateralValue&#45;&gt;AurumV2core.UnsupportedTokenType -->
<g id="edge14" class="edge" data-name="AurumV2core.getNftCollateralValue-&gt;AurumV2core.UnsupportedTokenType">

<path fill="none" stroke="#1bc6a6" stroke-width="2" d="M484.68,-154.26C499.23,-158 514.08,-162.82 527.41,-169 545.55,-177.42 545.38,-187.33 563.41,-196 570.11,-199.22 577.25,-202.1 584.52,-204.65" style=""/>
<polygon fill="#1bc6a6" stroke="#1bc6a6" stroke-width="2" points="583.37,-207.96 593.97,-207.72 585.54,-201.3 583.37,-207.96" style=""/>
</g>
<!-- AurumAdmin.getUtillization -->
<g id="node18" class="node" pointer-events="visible" data-name="AurumAdmin.getUtillization">

<ellipse fill="#ffbdb9" stroke="#ffbdb9" stroke-width="3" cx="134.85" cy="-605" rx="66.64" ry="18" style=""/>
<text text-anchor="middle" x="134.85" y="-600.8" font-family="Times,serif" font-size="14.00" style="">getUtillization</text>
</g>
<!-- AurumAdmin.setBorrowInterestRate -->
<g id="node19" class="node" pointer-events="visible" data-name="AurumAdmin.setBorrowInterestRate">

<ellipse fill="#ff9797" stroke="#ff9797" stroke-width="3" cx="134.85" cy="-551" rx="97.84" ry="18" style=""/>
<text text-anchor="middle" x="134.85" y="-546.8" font-family="Times,serif" font-size="14.00" style="">setBorrowInterestRate</text>
</g>
<!-- AurumAdmin.setLoanToValue -->
<g id="node20" class="node" pointer-events="visible" data-name="AurumAdmin.setLoanToValue">

<ellipse fill="#ff9797" stroke="#ff9797" stroke-width="3" cx="134.85" cy="-497" rx="75.28" ry="18" style=""/>
<text text-anchor="middle" x="134.85" y="-492.8" font-family="Times,serif" font-size="14.00" style="">setLoanToValue</text>
</g>
<!-- AurumAdmin.calculateInterest -->
<g id="node21" class="node" pointer-events="visible" data-name="AurumAdmin.calculateInterest">

<ellipse fill="#f2c383" stroke="#f2c383" stroke-width="3" cx="134.85" cy="-443" rx="74.1" ry="18" style=""/>
<text text-anchor="middle" x="134.85" y="-438.8" font-family="Times,serif" font-size="14.00" style="">calculateInterest</text>
</g>
<!-- NFTPrice.getNFTPrice -->
<g id="node22" class="node" pointer-events="visible" data-name="NFTPrice.getNFTPrice">

<ellipse fill="#ff9797" stroke="#ff9797" stroke-width="3" cx="134.85" cy="-744" rx="60.84" ry="18" style=""/>
<text text-anchor="middle" x="134.85" y="-739.8" font-family="Times,serif" font-size="14.00" style="">getNFTPrice</text>
</g>
<!-- NFTPrice._getNFTPrice -->
<g id="node24" class="node" pointer-events="visible" data-name="NFTPrice._getNFTPrice">

<ellipse fill="#edad56" stroke="#edad56" stroke-width="3" cx="408.56" cy="-690" rx="66" ry="18" style=""/>
<text text-anchor="middle" x="408.56" y="-685.8" font-family="Times,serif" font-size="14.00" style="">_getNFTPrice</text>
</g>
<!-- NFTPrice.getNFTPrice&#45;&gt;NFTPrice._getNFTPrice -->
<g id="edge19" class="edge" data-name="NFTPrice.getNFTPrice-&gt;NFTPrice._getNFTPrice">

<path fill="none" stroke="#1bc6a6" stroke-width="2" d="M142.3,-724.71C176,-674.3 332.39,-639.32 387.93,-664.22" style=""/>
<polygon fill="#1bc6a6" stroke="#1bc6a6" stroke-width="2" points="385.79,-667.01 396.13,-669.32 389.48,-661.07 385.79,-667.01" style=""/>
</g>
<!-- NFTPrice.getNFTPrice&#45;&gt;NFTPrice._getNFTPrice -->
<g id="edge21" class="edge" data-name="NFTPrice.getNFTPrice-&gt;NFTPrice._getNFTPrice">

<path fill="none" stroke="#1bc6a6" stroke-width="2" d="M146.5,-724.88C184.36,-690.06 313.4,-660.9 374.7,-669" style=""/>
<polygon fill="#1bc6a6" stroke="#1bc6a6" stroke-width="2" points="373.92,-672.41 384.41,-670.9 375.27,-665.54 373.92,-672.41" style=""/>
</g>
<!-- NFTPrice.getNFTPrice&#45;&gt;NFTPrice._getNFTPrice -->
<g id="edge23" class="edge" data-name="NFTPrice.getNFTPrice-&gt;NFTPrice._getNFTPrice">

<path fill="none" stroke="#1bc6a6" stroke-width="2" d="M154.53,-725.76C192.36,-705.58 279.67,-685.2 341.1,-679.62" style=""/>
<polygon fill="#1bc6a6" stroke="#1bc6a6" stroke-width="2" points="341.06,-683.13 350.77,-678.89 340.54,-676.15 341.06,-683.13" style=""/>
</g>
<!-- NFTPrice.getNFTPrice&#45;&gt;NFTPrice._getNFTPrice -->
<g id="edge25" class="edge" data-name="NFTPrice.getNFTPrice-&gt;NFTPrice._getNFTPrice">

<path fill="none" stroke="#1bc6a6" stroke-width="2" d="M169.99,-727.9C209.56,-715.81 276.06,-701.57 328.65,-693.3" style=""/>
<polygon fill="#1bc6a6" stroke="#1bc6a6" stroke-width="2" points="329,-696.78 338.36,-691.83 327.95,-689.86 329,-696.78" style=""/>
</g>
<!-- NFTPrice.getNFTPrice&#45;&gt;NFTPrice._getNFTPrice -->
<g id="edge27" class="edge" data-name="NFTPrice.getNFTPrice-&gt;NFTPrice._getNFTPrice">

<path fill="none" stroke="#1bc6a6" stroke-width="2" d="M187.6,-733.72C230.9,-725.11 292.99,-712.77 340.17,-703.39" style=""/>
<polygon fill="#1bc6a6" stroke="#1bc6a6" stroke-width="2" points="340.64,-706.87 349.77,-701.48 339.28,-700 340.64,-706.87" style=""/>
</g>
<!-- NFTPrice.getNFTPrice&#45;&gt;NFTPrice._getNFTPrice -->
<g id="edge29" class="edge" data-name="NFTPrice.getNFTPrice-&gt;NFTPrice._getNFTPrice">

<path fill="none" stroke="#1bc6a6" stroke-width="2" d="M196.83,-743.36C246.2,-736.52 314.77,-722.58 360.12,-709.97" style=""/>
<polygon fill="#1bc6a6" stroke="#1bc6a6" stroke-width="2" points="361,-713.36 369.63,-707.21 359.05,-706.64 361,-713.36" style=""/>
</g>
<!-- NFTPrice.getNFTPrice&#45;&gt;NFTPrice._getNFTPrice -->
<g id="edge31" class="edge" data-name="NFTPrice.getNFTPrice-&gt;NFTPrice._getNFTPrice">

<path fill="none" stroke="#1bc6a6" stroke-width="2" d="M184.74,-755.6C240.44,-753.11 329.79,-734.22 376.63,-714.07" style=""/>
<polygon fill="#1bc6a6" stroke="#1bc6a6" stroke-width="2" points="378.1,-717.24 385.64,-709.8 375.11,-710.91 378.1,-717.24" style=""/>
</g>
<!-- NFTPrice.getNFTPrice&#45;&gt;NFTPrice._getNFTPrice -->
<g id="edge33" class="edge" data-name="NFTPrice.getNFTPrice-&gt;NFTPrice._getNFTPrice">

<path fill="none" stroke="#1bc6a6" stroke-width="2" d="M155.39,-762.33C205.05,-776.64 335.77,-750.86 386.76,-716.95" style=""/>
<polygon fill="#1bc6a6" stroke="#1bc6a6" stroke-width="2" points="388.72,-719.86 394.5,-710.97 384.45,-714.31 388.72,-719.86" style=""/>
</g>
<!-- NFTPrice.getNFTPrice&#45;&gt;NFTPrice._getNFTPrice -->
<g id="edge35" class="edge" data-name="NFTPrice.getNFTPrice-&gt;NFTPrice._getNFTPrice">

<path fill="none" stroke="#1bc6a6" stroke-width="2" d="M144.89,-763.24C184.52,-797.47 343.07,-767.73 392.66,-719.29" style=""/>
<polygon fill="#1bc6a6" stroke="#1bc6a6" stroke-width="2" points="395.31,-721.58 399.1,-711.68 389.97,-717.05 395.31,-721.58" style=""/>
</g>
<!-- NFTPrice.ERC721 -->
<g id="node25" class="node" pointer-events="visible" data-name="NFTPrice.ERC721">

<ellipse fill="#edad56" stroke="#edad56" stroke-width="3" cx="408.56" cy="-744" rx="44.11" ry="18" style=""/>
<text text-anchor="middle" x="408.56" y="-739.8" font-family="Times,serif" font-size="14.00" style="">ERC721</text>
</g>
<!-- NFTPrice.getNFTPrice&#45;&gt;NFTPrice.ERC721 -->
<g id="edge15" class="edge" data-name="NFTPrice.getNFTPrice-&gt;NFTPrice.ERC721">

<path fill="none" stroke="#1bc6a6" stroke-width="2" d="M197.17,-744C243.04,-744 305.33,-744 350.21,-744" style=""/>
<polygon fill="#1bc6a6" stroke="#1bc6a6" stroke-width="2" points="349.93,-747.5 359.93,-744 349.93,-740.5 349.93,-747.5" style=""/>
</g>
<!-- NFTPrice.address -->
<g id="node26" class="node" pointer-events="visible" data-name="NFTPrice.address">

<ellipse fill="#edad56" stroke="#edad56" stroke-width="3" cx="408.56" cy="-798" rx="40" ry="18" style=""/>
<text text-anchor="middle" x="408.56" y="-793.8" font-family="Times,serif" font-size="14.00" style="">address</text>
</g>
<!-- NFTPrice.getNFTPrice&#45;&gt;NFTPrice.address -->
<g id="edge18" class="edge" data-name="NFTPrice.getNFTPrice-&gt;NFTPrice.address">

<path fill="none" stroke="#1bc6a6" stroke-width="2" d="M144.89,-724.76C184.6,-690.45 343.76,-720.4 392.98,-769.02" style=""/>
<polygon fill="#1bc6a6" stroke="#1bc6a6" stroke-width="2" points="390.26,-771.22 399.35,-776.66 395.63,-766.74 390.26,-771.22" style=""/>
</g>
<!-- NFTPrice.getNFTPrice&#45;&gt;NFTPrice.address -->
<g id="edge20" class="edge" data-name="NFTPrice.getNFTPrice-&gt;NFTPrice.address">

<path fill="none" stroke="#1bc6a6" stroke-width="2" d="M155.39,-725.67C205.28,-711.29 336.96,-737.38 387.46,-771.52" style=""/>
<polygon fill="#1bc6a6" stroke="#1bc6a6" stroke-width="2" points="385.05,-774.08 395.07,-777.52 389.38,-768.58 385.05,-774.08" style=""/>
</g>
<!-- NFTPrice.getNFTPrice&#45;&gt;NFTPrice.address -->
<g id="edge22" class="edge" data-name="NFTPrice.getNFTPrice-&gt;NFTPrice.address">

<path fill="none" stroke="#1bc6a6" stroke-width="2" d="M184.74,-732.4C241.42,-734.94 332.94,-754.45 379.06,-775" style=""/>
<polygon fill="#1bc6a6" stroke="#1bc6a6" stroke-width="2" points="377.31,-778.03 387.82,-779.32 380.4,-771.76 377.31,-778.03" style=""/>
</g>
<!-- NFTPrice.getNFTPrice&#45;&gt;NFTPrice.address -->
<g id="edge24" class="edge" data-name="NFTPrice.getNFTPrice-&gt;NFTPrice.address">

<path fill="none" stroke="#1bc6a6" stroke-width="2" d="M196.83,-744.64C248.95,-751.86 322.45,-766.99 367.45,-780.12" style=""/>
<polygon fill="#1bc6a6" stroke="#1bc6a6" stroke-width="2" points="366.41,-783.46 377,-783.05 368.47,-776.77 366.41,-783.46" style=""/>
</g>
<!-- NFTPrice.getNFTPrice&#45;&gt;NFTPrice.address -->
<g id="edge26" class="edge" data-name="NFTPrice.getNFTPrice-&gt;NFTPrice.address">

<path fill="none" stroke="#1bc6a6" stroke-width="2" d="M187.6,-754.28C236.54,-764.01 309.49,-778.51 357.77,-788.11" style=""/>
<polygon fill="#1bc6a6" stroke="#1bc6a6" stroke-width="2" points="356.93,-791.51 367.42,-790.02 358.3,-784.64 356.93,-791.51" style=""/>
</g>
<!-- NFTPrice.getNFTPrice&#45;&gt;NFTPrice.address -->
<g id="edge28" class="edge" data-name="NFTPrice.getNFTPrice-&gt;NFTPrice.address">

<path fill="none" stroke="#1bc6a6" stroke-width="2" d="M169.99,-760.1C216.47,-774.31 300.12,-791.47 354.73,-798.45" style=""/>
<polygon fill="#1bc6a6" stroke="#1bc6a6" stroke-width="2" points="354.26,-801.92 364.6,-799.61 355.08,-794.97 354.26,-801.92" style=""/>
</g>
<!-- NFTPrice.getNFTPrice&#45;&gt;NFTPrice.address -->
<g id="edge30" class="edge" data-name="NFTPrice.getNFTPrice-&gt;NFTPrice.address">

<path fill="none" stroke="#1bc6a6" stroke-width="2" d="M154.53,-762.24C197.11,-784.95 302.36,-807.91 362.85,-809.75" style=""/>
<polygon fill="#1bc6a6" stroke="#1bc6a6" stroke-width="2" points="362.72,-813.25 372.73,-809.79 362.75,-806.25 362.72,-813.25" style=""/>
</g>
<!-- NFTPrice.getNFTPrice&#45;&gt;NFTPrice.address -->
<g id="edge32" class="edge" data-name="NFTPrice.getNFTPrice-&gt;NFTPrice.address">

<path fill="none" stroke="#1bc6a6" stroke-width="2" d="M146.5,-763.12C185.1,-798.63 318.48,-828.24 378.22,-818.49" style=""/>
<polygon fill="#1bc6a6" stroke="#1bc6a6" stroke-width="2" points="378.91,-821.92 387.81,-816.18 377.27,-815.11 378.91,-821.92" style=""/>
</g>
<!-- NFTPrice.getNFTPrice&#45;&gt;NFTPrice.address -->
<g id="edge34" class="edge" data-name="NFTPrice.getNFTPrice-&gt;NFTPrice.address">

<path fill="none" stroke="#1bc6a6" stroke-width="2" d="M142.3,-763.29C176.07,-813.82 333.09,-848.83 388.3,-823.61" style=""/>
<polygon fill="#1bc6a6" stroke="#1bc6a6" stroke-width="2" points="389.85,-826.77 396.42,-818.46 386.1,-820.86 389.85,-826.77" style=""/>
</g>
<!-- ERC721.symbol -->
<g id="node34" class="node" pointer-events="visible" data-name="ERC721.symbol">

<ellipse fill="#edad56" stroke="#edad56" stroke-width="3" cx="408.56" cy="-605" rx="39.45" ry="18" style=""/>
<text text-anchor="middle" x="408.56" y="-600.8" font-family="Times,serif" font-size="14.00" style="">symbol</text>
</g>
<!-- NFTPrice.getNFTPrice&#45;&gt;ERC721.symbol -->
<g id="edge16" class="edge" data-name="NFTPrice.getNFTPrice-&gt;ERC721.symbol">

<path fill="none" stroke="white" stroke-width="2" d="M195.33,-739.54C215.28,-735.77 236.75,-729.01 253.7,-717 278.15,-699.68 267.22,-679.8 289.7,-660 310.39,-641.78 338.14,-628.44 361.52,-619.45" style=""/>
<polygon fill="white" stroke="white" stroke-width="2" points="362.59,-622.79 370.79,-616.07 360.19,-616.21 362.59,-622.79" style=""/>
</g>
<!-- ERC721.ownerOf -->
<g id="node35" class="node" pointer-events="visible" data-name="ERC721.ownerOf">

<ellipse fill="#edad56" stroke="#edad56" stroke-width="3" cx="408.56" cy="-551" rx="45.22" ry="18" style=""/>
<text text-anchor="middle" x="408.56" y="-546.8" font-family="Times,serif" font-size="14.00" style="">ownerOf</text>
</g>
<!-- NFTPrice.getNFTPrice&#45;&gt;ERC721.ownerOf -->
<g id="edge17" class="edge" data-name="NFTPrice.getNFTPrice-&gt;ERC721.ownerOf">

<path fill="none" stroke="white" stroke-width="2" d="M196.73,-742.49C217.17,-739.03 238.58,-731.7 253.7,-717 299.46,-672.52 243.95,-622.48 289.7,-578 305.41,-562.73 327.89,-555.43 349.01,-552.13" style=""/>
<polygon fill="white" stroke="white" stroke-width="2" points="349.41,-555.6 358.91,-550.92 348.56,-548.65 349.41,-555.6" style=""/>
</g>
<!-- NFTPrice.get_ETHtoUSD_Price -->
<g id="node23" class="node" pointer-events="visible" data-name="NFTPrice.get_ETHtoUSD_Price">

<ellipse fill="#ff9797" stroke="#ff9797" stroke-width="3" cx="134.85" cy="-690" rx="97.87" ry="18" style=""/>
<text text-anchor="middle" x="134.85" y="-685.8" font-family="Times,serif" font-size="14.00" style="">get_ETHtoUSD_Price</text>
</g>
<!-- NFTPrice.get_ETHtoUSD_Price&#45;&gt;NFTPrice._getNFTPrice -->
<g id="edge36" class="edge" data-name="NFTPrice.get_ETHtoUSD_Price-&gt;NFTPrice._getNFTPrice">

<path fill="none" stroke="#1bc6a6" stroke-width="2" d="M233.94,-690C265.06,-690 299.05,-690 328.64,-690" style=""/>
<polygon fill="#1bc6a6" stroke="#1bc6a6" stroke-width="2" points="328.43,-693.5 338.43,-690 328.43,-686.5 328.43,-693.5" style=""/>
</g>
<!-- NFTPrice.AggregatorV3Interface -->
<g id="node27" class="node" pointer-events="visible" data-name="NFTPrice.AggregatorV3Interface">

<ellipse fill="#edad56" stroke="#edad56" stroke-width="3" cx="668.84" cy="-690" rx="101.24" ry="18" style=""/>
<text text-anchor="middle" x="668.84" y="-685.8" font-family="Times,serif" font-size="14.00" style="">AggregatorV3Interface</text>
</g>
<!-- NFTPrice._getNFTPrice&#45;&gt;NFTPrice.AggregatorV3Interface -->
<g id="edge37" class="edge" data-name="NFTPrice._getNFTPrice-&gt;NFTPrice.AggregatorV3Interface">

<path fill="none" stroke="#1bc6a6" stroke-width="2" d="M475.74,-690C499.37,-690 526.73,-690 553.26,-690" style=""/>
<polygon fill="#1bc6a6" stroke="#1bc6a6" stroke-width="2" points="553.17,-693.5 563.17,-690 553.17,-686.5 553.17,-693.5" style=""/>
</g>
<!-- AggregatorV3Interface.latestRoundData -->
<g id="node36" class="node" pointer-events="visible" data-name="AggregatorV3Interface.latestRoundData">

<ellipse fill="#edad56" stroke="#edad56" stroke-width="3" cx="668.84" cy="-605" rx="75.3" ry="18" style=""/>
<text text-anchor="middle" x="668.84" y="-600.8" font-family="Times,serif" font-size="14.00" style="">latestRoundData</text>
</g>
<!-- NFTPrice._getNFTPrice&#45;&gt;AggregatorV3Interface.latestRoundData -->
<g id="edge38" class="edge" data-name="NFTPrice._getNFTPrice-&gt;AggregatorV3Interface.latestRoundData">

<path fill="none" stroke="white" stroke-width="2" d="M461.87,-678.16C482.46,-673.12 506.2,-666.82 527.41,-660 557.78,-650.23 591.05,-637.3 617.58,-626.43" style=""/>
<polygon fill="white" stroke="white" stroke-width="2" points="618.56,-629.82 626.47,-622.76 615.89,-623.35 618.56,-629.82" style=""/>
</g>
<!-- NFTEscrow.depositERC721Collateral -->
<g id="node28" class="node" pointer-events="visible" data-name="NFTEscrow.depositERC721Collateral">

<ellipse fill="#f2c383" stroke="#f2c383" stroke-width="3" cx="134.85" cy="-1107" rx="110.05" ry="18" style=""/>
<text text-anchor="middle" x="134.85" y="-1102.8" font-family="Times,serif" font-size="14.00" style="">depositERC721Collateral</text>
</g>
<!-- NFTEscrow.IERC721 -->
<g id="node30" class="node" pointer-events="visible" data-name="NFTEscrow.IERC721">

<ellipse fill="#edad56" stroke="#edad56" stroke-width="3" cx="408.56" cy="-1269" rx="47.54" ry="18" style=""/>
<text text-anchor="middle" x="408.56" y="-1264.8" font-family="Times,serif" font-size="14.00" style="">IERC721</text>
</g>
<!-- NFTEscrow.depositERC721Collateral&#45;&gt;NFTEscrow.IERC721 -->
<g id="edge39" class="edge" data-name="NFTEscrow.depositERC721Collateral-&gt;NFTEscrow.IERC721">

<path fill="none" stroke="#1bc6a6" stroke-width="2" d="M227.47,-1117.85C237.07,-1121.83 246.09,-1127.09 253.7,-1134 291.17,-1168.01 252.24,-1207.99 289.7,-1242 305.27,-1256.13 326.69,-1263.34 347,-1266.87" style=""/>
<polygon fill="#1bc6a6" stroke="#1bc6a6" stroke-width="2" points="346.39,-1270.32 356.78,-1268.25 347.37,-1263.39 346.39,-1270.32" style=""/>
</g>
<!-- NFTEscrow.address -->
<g id="node31" class="node" pointer-events="visible" data-name="NFTEscrow.address">

<ellipse fill="#edad56" stroke="#edad56" stroke-width="3" cx="408.56" cy="-1161" rx="40" ry="18" style=""/>
<text text-anchor="middle" x="408.56" y="-1156.8" font-family="Times,serif" font-size="14.00" style="">address</text>
</g>
<!-- NFTEscrow.depositERC721Collateral&#45;&gt;NFTEscrow.address -->
<g id="edge44" class="edge" data-name="NFTEscrow.depositERC721Collateral-&gt;NFTEscrow.address">

<path fill="none" stroke="#1bc6a6" stroke-width="2" d="M225.19,-1118.37C271.13,-1126.75 325.13,-1137.89 362.39,-1146.84" style=""/>
<polygon fill="#1bc6a6" stroke="#1bc6a6" stroke-width="2" points="361.34,-1150.19 371.89,-1149.19 363.02,-1143.39 361.34,-1150.19" style=""/>
</g>
<!-- NFTEscrow.depositERC721Collateral&#45;&gt;NFTEscrow.address -->
<g id="edge46" class="edge" data-name="NFTEscrow.depositERC721Collateral-&gt;NFTEscrow.address">

<path fill="none" stroke="#1bc6a6" stroke-width="2" d="M191.82,-1123.71C239.81,-1134.84 308.44,-1148.44 355.32,-1156.07" style=""/>
<polygon fill="#1bc6a6" stroke="#1bc6a6" stroke-width="2" points="354.52,-1159.49 364.95,-1157.59 355.61,-1152.57 354.52,-1159.49" style=""/>
</g>
<!-- NFTEscrow.TransferFailed -->
<g id="node32" class="node" pointer-events="visible" data-name="NFTEscrow.TransferFailed">

<ellipse fill="#edad56" stroke="#edad56" stroke-width="3" cx="408.56" cy="-1215" rx="67.76" ry="18" style=""/>
<text text-anchor="middle" x="408.56" y="-1210.8" font-family="Times,serif" font-size="14.00" style="">TransferFailed</text>
</g>
<!-- NFTEscrow.depositERC721Collateral&#45;&gt;NFTEscrow.TransferFailed -->
<g id="edge47" class="edge" data-name="NFTEscrow.depositERC721Collateral-&gt;NFTEscrow.TransferFailed">

<path fill="none" stroke="#1bc6a6" stroke-width="2" d="M222.76,-1118.88C233.74,-1122.64 244.37,-1127.56 253.7,-1134 277.44,-1150.38 265.96,-1171.62 289.7,-1188 301.73,-1196.3 315.93,-1202.08 330.23,-1206.1" style=""/>
<polygon fill="#1bc6a6" stroke="#1bc6a6" stroke-width="2" points="329.29,-1209.47 339.84,-1208.47 330.97,-1202.68 329.29,-1209.47" style=""/>
</g>
<!-- NFTEscrow.ApprovalFailed -->
<g id="node33" class="node" pointer-events="visible" data-name="NFTEscrow.ApprovalFailed">

<ellipse fill="#edad56" stroke="#edad56" stroke-width="3" cx="408.56" cy="-1107" rx="71.79" ry="18" style=""/>
<text text-anchor="middle" x="408.56" y="-1102.8" font-family="Times,serif" font-size="14.00" style="">ApprovalFailed</text>
</g>
<!-- NFTEscrow.depositERC721Collateral&#45;&gt;NFTEscrow.ApprovalFailed -->
<g id="edge48" class="edge" data-name="NFTEscrow.depositERC721Collateral-&gt;NFTEscrow.ApprovalFailed">

<path fill="none" stroke="#1bc6a6" stroke-width="2" d="M246.36,-1107C271.77,-1107 298.4,-1107 322.53,-1107" style=""/>
<polygon fill="#1bc6a6" stroke="#1bc6a6" stroke-width="2" points="322.25,-1110.5 332.25,-1107 322.25,-1103.5 322.25,-1110.5" style=""/>
</g>
<!-- IERC721.ownerOf -->
<g id="node37" class="node" pointer-events="visible" data-name="IERC721.ownerOf">

<ellipse fill="#edad56" stroke="#edad56" stroke-width="3" cx="408.56" cy="-1022" rx="45.22" ry="18" style=""/>
<text text-anchor="middle" x="408.56" y="-1017.8" font-family="Times,serif" font-size="14.00" style="">ownerOf</text>
</g>
<!-- NFTEscrow.depositERC721Collateral&#45;&gt;IERC721.ownerOf -->
<g id="edge40" class="edge" data-name="NFTEscrow.depositERC721Collateral-&gt;IERC721.ownerOf">

<path fill="none" stroke="white" stroke-width="2" d="M189.86,-1090.11C239.05,-1074.72 311.07,-1052.19 358.61,-1037.31" style=""/>
<polygon fill="white" stroke="white" stroke-width="2" points="359.64,-1040.66 368.14,-1034.33 357.55,-1033.98 359.64,-1040.66" style=""/>
</g>
<!-- IERC721.balanceOf -->
<g id="node38" class="node" pointer-events="visible" data-name="IERC721.balanceOf">

<ellipse fill="#edad56" stroke="#edad56" stroke-width="3" cx="408.56" cy="-968" rx="50.92" ry="18" style=""/>
<text text-anchor="middle" x="408.56" y="-963.8" font-family="Times,serif" font-size="14.00" style="">balanceOf</text>
</g>
<!-- NFTEscrow.depositERC721Collateral&#45;&gt;IERC721.balanceOf -->
<g id="edge41" class="edge" data-name="NFTEscrow.depositERC721Collateral-&gt;IERC721.balanceOf">

<path fill="none" stroke="white" stroke-width="2" d="M150.27,-1087.94C176.1,-1060.59 232.87,-1011.87 289.7,-986 306.54,-978.34 325.74,-972.75 343.7,-969.08" style=""/>
<polygon fill="white" stroke="white" stroke-width="2" points="344.31,-972.53 353.52,-967.3 343.05,-965.64 344.31,-972.53" style=""/>
</g>
<!-- NFTEscrow.depositERC721Collateral&#45;&gt;IERC721.balanceOf -->
<g id="edge42" class="edge" data-name="NFTEscrow.depositERC721Collateral-&gt;IERC721.balanceOf">

<path fill="none" stroke="white" stroke-width="2" d="M163.42,-1088.26C192.62,-1064.9 241.14,-1026.11 289.7,-1004 310.61,-994.48 335.17,-988.17 356.44,-983.36" style=""/>
<polygon fill="white" stroke="white" stroke-width="2" points="356.91,-986.84 365.92,-981.26 355.4,-980 356.91,-986.84" style=""/>
</g>
<!-- tokenContract_.call -->
<g id="node39" class="node" pointer-events="visible" data-name="tokenContract_.call">

<ellipse fill="#edad56" stroke="#edad56" stroke-width="3" cx="408.56" cy="-883" rx="27" ry="18" style=""/>
<text text-anchor="middle" x="408.56" y="-878.8" font-family="Times,serif" font-size="14.00" style="">call</text>
</g>
<!-- NFTEscrow.depositERC721Collateral&#45;&gt;tokenContract_.call -->
<g id="edge43" class="edge" data-name="NFTEscrow.depositERC721Collateral-&gt;tokenContract_.call">

<path fill="none" stroke="white" stroke-width="2" d="M145.88,-1087.78C168.42,-1051.96 226.11,-975.8 289.7,-929 313.75,-911.3 344.4,-897.21 368.41,-888.97" style=""/>
<polygon fill="white" stroke="white" stroke-width="2" points="369.28,-892.36 377.76,-886.01 367.17,-885.69 369.28,-892.36" style=""/>
</g>
<!-- NFTEscrow.depositERC721Collateral&#45;&gt;tokenContract_.call -->
<g id="edge45" class="edge" data-name="NFTEscrow.depositERC721Collateral-&gt;tokenContract_.call">

<path fill="none" stroke="white" stroke-width="2" d="M153.49,-1087.95C179.78,-1055.32 232.34,-989.22 289.7,-947 316.31,-927.42 350.99,-912.26 375.83,-901.18" style=""/>
<polygon fill="white" stroke="white" stroke-width="2" points="377.06,-904.46 384.73,-897.16 374.18,-898.09 377.06,-904.46" style=""/>
</g>
<!-- NFTEscrow.withdrawERC721Collateral -->
<g id="node29" class="node" pointer-events="visible" data-name="NFTEscrow.withdrawERC721Collateral">

<ellipse fill="#f2c383" stroke="#f2c383" stroke-width="3" cx="134.85" cy="-1161" rx="118.7" ry="18" style=""/>
<text text-anchor="middle" x="134.85" y="-1156.8" font-family="Times,serif" font-size="14.00" style="">withdrawERC721Collateral</text>
</g>
<!-- NFTEscrow.withdrawERC721Collateral&#45;&gt;NFTEscrow.IERC721 -->
<g id="edge49" class="edge" data-name="NFTEscrow.withdrawERC721Collateral-&gt;NFTEscrow.IERC721">

<path fill="none" stroke="#1bc6a6" stroke-width="2" d="M165.71,-1179.72C195.94,-1197.94 244.56,-1225.27 289.7,-1242 309.16,-1249.21 331.16,-1254.88 350.84,-1259.12" style=""/>
<polygon fill="#1bc6a6" stroke="#1bc6a6" stroke-width="2" points="349.93,-1262.5 360.43,-1261.09 351.34,-1255.65 349.93,-1262.5" style=""/>
</g>
<!-- NFTEscrow.withdrawERC721Collateral&#45;&gt;NFTEscrow.address -->
<g id="edge51" class="edge" data-name="NFTEscrow.withdrawERC721Collateral-&gt;NFTEscrow.address">

<path fill="none" stroke="#1bc6a6" stroke-width="2" d="M247.54,-1154.35C285.03,-1154.05 325.05,-1154.45 355.69,-1155.56" style=""/>
<polygon fill="#1bc6a6" stroke="#1bc6a6" stroke-width="2" points="355.47,-1159.05 365.61,-1155.97 355.77,-1152.06 355.47,-1159.05" style=""/>
</g>
<!-- NFTEscrow.withdrawERC721Collateral&#45;&gt;NFTEscrow.address -->
<g id="edge53" class="edge" data-name="NFTEscrow.withdrawERC721Collateral-&gt;NFTEscrow.address">

<path fill="none" stroke="#1bc6a6" stroke-width="2" d="M247.54,-1167.65C285.03,-1167.95 325.05,-1167.55 355.69,-1166.44" style=""/>
<polygon fill="#1bc6a6" stroke="#1bc6a6" stroke-width="2" points="355.77,-1169.94 365.61,-1166.03 355.47,-1162.95 355.77,-1169.94" style=""/>
</g>
<!-- NFTEscrow.withdrawERC721Collateral&#45;&gt;NFTEscrow.TransferFailed -->
<g id="edge54" class="edge" data-name="NFTEscrow.withdrawERC721Collateral-&gt;NFTEscrow.TransferFailed">

<path fill="none" stroke="#1bc6a6" stroke-width="2" d="M211.18,-1175.97C251.34,-1183.95 300.36,-1193.7 339.39,-1201.45" style=""/>
<polygon fill="#1bc6a6" stroke="#1bc6a6" stroke-width="2" points="338.49,-1204.84 348.98,-1203.36 339.85,-1197.98 338.49,-1204.84" style=""/>
</g>
<!-- NFTEscrow.withdrawERC721Collateral&#45;&gt;IERC721.ownerOf -->
<g id="edge50" class="edge" data-name="NFTEscrow.withdrawERC721Collateral-&gt;IERC721.ownerOf">

<path fill="none" stroke="white" stroke-width="2" d="M225.64,-1148.36C235.62,-1144.7 245.23,-1140.01 253.7,-1134 278.15,-1116.68 267.22,-1096.8 289.7,-1077 309.43,-1059.62 335.6,-1046.68 358.26,-1037.72" style=""/>
<polygon fill="white" stroke="white" stroke-width="2" points="359.46,-1041.01 367.59,-1034.22 357,-1034.46 359.46,-1041.01" style=""/>
</g>
<!-- NFTEscrow.withdrawERC721Collateral&#45;&gt;tokenContract_.call -->
<g id="edge52" class="edge" data-name="NFTEscrow.withdrawERC721Collateral-&gt;tokenContract_.call">

<path fill="none" stroke="white" stroke-width="2" d="M231.88,-1149.57C239.99,-1145.61 247.46,-1140.52 253.7,-1134 314.95,-1070.02 235.55,-1008.08 289.7,-938 309.04,-912.97 342.5,-898.87 368.84,-891.22" style=""/>
<polygon fill="white" stroke="white" stroke-width="2" points="369.41,-894.69 378.18,-888.75 367.62,-887.93 369.41,-894.69" style=""/>
</g>
<!-- key -->
<g id="node40" class="node" pointer-events="visible" data-name="key">

<polygon fill="#edad56" stroke="none" stroke-width="3" points="199.85,-1424 69.85,-1424 69.85,-1336 199.85,-1336 199.85,-1424" style=""/>
<text text-anchor="start" x="119.49" y="-1405.4" font-family="Times,serif" font-size="14.00" style="">Internal Call</text>
<text text-anchor="start" x="115.6" y="-1385.4" font-family="Times,serif" font-size="14.00" style="">External Call</text>
<text text-anchor="start" x="93.06" y="-1365.4" font-family="Times,serif" font-size="14.00" style="">Defined Contract</text>
<text text-anchor="start" x="79.45" y="-1345.4" font-family="Times,serif" font-size="14.00" style="">Undefined Contract</text>
</g>
<!-- key2 -->
<g id="node41" class="node" pointer-events="visible" data-name="key2">

<polygon fill="#edad56" stroke="none" stroke-width="3" points="435.56,-1424 381.56,-1424 381.56,-1336 435.56,-1336 435.56,-1424" style=""/>
<text text-anchor="start" x="398.56" y="-1405.4" font-family="Times,serif" font-size="14.00" style="">   </text>
<text text-anchor="start" x="398.56" y="-1385.4" font-family="Times,serif" font-size="14.00" style="">   </text>
<polygon fill="#445773" stroke="none" points="396.56,-1360 396.56,-1380 421.56,-1380 421.56,-1360 396.56,-1360" style=""/>
<text text-anchor="start" x="398.56" y="-1365.4" font-family="Times,serif" font-size="14.00" style="">   </text>
<polygon fill="none" stroke="#e8726d" points="398.56,-1342 398.56,-1358 419.56,-1358 419.56,-1342 398.56,-1342" style=""/>
</g>
<!-- key&#45;&gt;key2 -->
<g id="edge55" class="edge" data-name="key-&gt;key2">

<path fill="none" stroke="#1bc6a6" stroke-width="2" d="M192.85,-1410C278.54,-1410 303.1,-1410 382.83,-1410" style=""/>
<polygon fill="#1bc6a6" stroke="#1bc6a6" stroke-width="2" points="382.53,-1413.5 392.53,-1410 382.53,-1406.5 382.53,-1413.5" style=""/>
</g>
<!-- key&#45;&gt;key2 -->
<g id="edge56" class="edge" data-name="key-&gt;key2">

<path fill="none" stroke="white" stroke-width="2" d="M192.85,-1390C278.54,-1390 303.1,-1390 382.83,-1390" style=""/>
<polygon fill="white" stroke="white" stroke-width="2" points="382.53,-1393.5 392.53,-1390 382.53,-1386.5 382.53,-1393.5" style=""/>
</g>
</g>
</svg>