<?xml version="1.0" standalone="no"?>
<svg xmlns="http://www.w3.org/2000/svg" xmlns:xlink="http://www.w3.org/1999/xlink" width="983pt" height="1141pt" viewBox="0.00 0.00 982.89 1141.00">
<g id="graph0" class="graph" transform="translate(150.126215622598,1017.3976875097264) scale(0.7757106188649348)" data-name="G">

<polygon fill="#2e3e56" stroke="none" points="-4,4 -4,-1137 978.89,-1137 978.89,4 -4,4" style=""/>
<g id="clust1" class="cluster" data-name="clusterAurumV1core">

<path fill="#445773" stroke="#445773" d="M20,-201C20,-201 954.89,-201 954.89,-201 960.89,-201 966.89,-207 966.89,-213 966.89,-213 966.89,-644 966.89,-644 966.89,-650 960.89,-656 954.89,-656 954.89,-656 20,-656 20,-656 14,-656 8,-650 8,-644 8,-644 8,-213 8,-213 8,-207 14,-201 20,-201" style=""/>
<text text-anchor="middle" x="487.44" y="-639.4" font-family="Times,serif" font-size="14.00" fill="#f0f0f0" style="">AurumV1core</text>
</g>
<g id="clust2" class="cluster" data-name="clusterNFTPrice">

<path fill="#445773" stroke="#445773" d="M29.64,-803C29.64,-803 712.81,-803 712.81,-803 718.81,-803 724.81,-809 724.81,-815 724.81,-815 724.81,-976 724.81,-976 724.81,-982 718.81,-988 712.81,-988 712.81,-988 29.64,-988 29.64,-988 23.64,-988 17.64,-982 17.64,-976 17.64,-976 17.64,-815 17.64,-815 17.64,-809 23.64,-803 29.64,-803" style=""/>
<text text-anchor="middle" x="371.22" y="-971.4" font-family="Times,serif" font-size="14.00" fill="#f0f0f0" style="">NFTPrice</text>
</g>
<g id="clust3" class="cluster" data-name="clustercollateralValue">

<path fill="#3b4b63" stroke="#e8726d" stroke-dasharray="5,2" d="M326,-116C326,-116 403,-116 403,-116 409,-116 415,-122 415,-128 415,-128 415,-181 415,-181 415,-187 409,-193 403,-193 403,-193 326,-193 326,-193 320,-193 314,-187 314,-181 314,-181 314,-128 314,-128 314,-122 320,-116 326,-116" style=""/>
<text text-anchor="middle" x="364.5" y="-176.4" font-family="Times,serif" font-size="14.00" fill="#f0f0f0" style="">collateralValue</text>
</g>
<g id="clust4" class="cluster" data-name="cluster_amount">

<path fill="#3b4b63" stroke="#e8726d" stroke-dasharray="5,2" d="M341,-31C341,-31 387,-31 387,-31 393,-31 399,-37 399,-43 399,-43 399,-96 399,-96 399,-102 393,-108 387,-108 387,-108 341,-108 341,-108 335,-108 329,-102 329,-96 329,-96 329,-43 329,-43 329,-37 335,-31 341,-31" style=""/>
<text text-anchor="middle" x="364" y="-91.4" font-family="Times,serif" font-size="14.00" fill="#f0f0f0" style="">_amount</text>
</g>
<g id="clust5" class="cluster" data-name="clusterIERC721Enumerable">

<path fill="#3b4b63" stroke="#e8726d" stroke-dasharray="5,2" d="M807.26,-8C807.26,-8 922.17,-8 922.17,-8 928.17,-8 934.17,-14 934.17,-20 934.17,-20 934.17,-181 934.17,-181 934.17,-187 928.17,-193 922.17,-193 922.17,-193 807.26,-193 807.26,-193 801.26,-193 795.26,-187 795.26,-181 795.26,-181 795.26,-20 795.26,-20 795.26,-14 801.26,-8 807.26,-8" style=""/>
<text text-anchor="middle" x="864.71" y="-176.4" font-family="Times,serif" font-size="14.00" fill="#f0f0f0" style="">IERC721Enumerable</text>
</g>
<g id="clust6" class="cluster" data-name="clusterERC721">

<path fill="#3b4b63" stroke="#e8726d" stroke-dasharray="5,2" d="M322.64,-664C322.64,-664 405.36,-664 405.36,-664 411.36,-664 417.36,-670 417.36,-676 417.36,-676 417.36,-783 417.36,-783 417.36,-789 411.36,-795 405.36,-795 405.36,-795 322.64,-795 322.64,-795 316.64,-795 310.64,-789 310.64,-783 310.64,-783 310.64,-676 310.64,-676 310.64,-670 316.64,-664 322.64,-664" style=""/>
<text text-anchor="middle" x="364" y="-778.4" font-family="Times,serif" font-size="14.00" fill="#f0f0f0" style="">ERC721</text>
</g>
<g id="clust7" class="cluster" data-name="clusterAggregatorV3Interface">

<path fill="#3b4b63" stroke="#e8726d" stroke-dasharray="5,2" d="M544.29,-718C544.29,-718 687.09,-718 687.09,-718 693.09,-718 699.09,-724 699.09,-730 699.09,-730 699.09,-783 699.09,-783 699.09,-789 693.09,-795 687.09,-795 687.09,-795 544.29,-795 544.29,-795 538.29,-795 532.29,-789 532.29,-783 532.29,-783 532.29,-730 532.29,-730 532.29,-724 538.29,-718 544.29,-718" style=""/>
<text text-anchor="middle" x="615.69" y="-778.4" font-family="Times,serif" font-size="14.00" fill="#f0f0f0" style="">AggregatorV3Interface</text>
</g>
<g id="clust8" class="cluster" data-name="cluster_01">

<polygon fill="#2e3e56" stroke="black" points="50.58,-996 50.58,-1125 399,-1125 399,-996 50.58,-996" style=""/>
<text text-anchor="middle" x="224.79" y="-1108.4" font-family="Times,serif" font-size="14.00" style="">Legend</text>
</g>
<!-- AurumV1core.&lt;Constructor&gt; -->
<g id="node1" class="node" pointer-events="visible" data-name="AurumV1core.&lt;Constructor&gt;">

<ellipse fill="#ff9797" stroke="brown" stroke-width="3" cx="123.58" cy="-605" rx="67.55" ry="18" style=""/>
<text text-anchor="middle" x="123.58" y="-600.8" font-family="Times,serif" font-size="14.00" style="">&lt;Constructor&gt;</text>
</g>
<!-- AurumV1core.&lt;Fallback&gt; -->
<g id="node2" class="node" pointer-events="visible" data-name="AurumV1core.&lt;Fallback&gt;">

<ellipse fill="#ffbdb9" stroke="brown" stroke-width="3" cx="123.58" cy="-551" rx="55.36" ry="18" style=""/>
<text text-anchor="middle" x="123.58" y="-546.8" font-family="Times,serif" font-size="14.00" style="">&lt;Fallback&gt;</text>
</g>
<!-- AurumV1core.&lt;Receive Ether&gt; -->
<g id="node3" class="node" pointer-events="visible" data-name="AurumV1core.&lt;Receive Ether&gt;">

<ellipse fill="#ffbdb9" stroke="brown" stroke-width="3" cx="123.58" cy="-497" rx="76.21" ry="18" style=""/>
<text text-anchor="middle" x="123.58" y="-492.8" font-family="Times,serif" font-size="14.00" style="">&lt;Receive Ether&gt;</text>
</g>
<!-- AurumV1core.depositToPool -->
<g id="node4" class="node" pointer-events="visible" data-name="AurumV1core.depositToPool">

<ellipse fill="#ffbdb9" stroke="brown" stroke-width="3" cx="615.69" cy="-571" rx="67.24" ry="18" style=""/>
<text text-anchor="middle" x="615.69" y="-566.8" font-family="Times,serif" font-size="14.00" style="">depositToPool</text>
</g>
<!-- AurumV1core.address -->
<g id="node15" class="node" pointer-events="visible" data-name="AurumV1core.address">

<ellipse fill="#edad56" stroke="#edad56" stroke-width="3" cx="864.71" cy="-321" rx="40" ry="18" style=""/>
<text text-anchor="middle" x="864.71" y="-316.8" font-family="Times,serif" font-size="14.00" style="">address</text>
</g>
<!-- AurumV1core.depositToPool&#45;&gt;AurumV1core.address -->
<g id="edge1" class="edge" data-name="AurumV1core.depositToPool-&gt;AurumV1core.address">

<path fill="none" stroke="#1bc6a6" stroke-width="2" d="M681.91,-565.81C700.26,-561.88 719.34,-555.21 734.54,-544 800.84,-495.1 838.59,-401.19 854.56,-352.31" style=""/>
<polygon fill="#1bc6a6" stroke="#1bc6a6" stroke-width="2" points="857.84,-353.54 857.5,-342.95 851.16,-351.44 857.84,-353.54" style=""/>
</g>
<!-- AurumV1core.withdrawFromPool -->
<g id="node5" class="node" pointer-events="visible" data-name="AurumV1core.withdrawFromPool">

<ellipse fill="#ffbdb9" stroke="#ffbdb9" stroke-width="3" cx="123.58" cy="-443" rx="86.29" ry="18" style=""/>
<text text-anchor="middle" x="123.58" y="-438.8" font-family="Times,serif" font-size="14.00" style="">withdrawFromPool</text>
</g>
<!-- AurumV1core.borrow -->
<g id="node6" class="node" pointer-events="visible" data-name="AurumV1core.borrow">

<ellipse fill="#ffbdb9" stroke="brown" stroke-width="3" cx="123.58" cy="-389" rx="38.86" ry="18" style=""/>
<text text-anchor="middle" x="123.58" y="-384.8" font-family="Times,serif" font-size="14.00" style="">borrow</text>
</g>
<!-- AurumV1core.getNftCollateralValue -->
<g id="node12" class="node" pointer-events="visible" data-name="AurumV1core.getNftCollateralValue">

<ellipse fill="#edad56" stroke="#edad56" stroke-width="3" cx="364" cy="-500" rx="96.68" ry="18" style=""/>
<text text-anchor="middle" x="364" y="-495.8" font-family="Times,serif" font-size="14.00" style="">getNftCollateralValue</text>
</g>
<!-- AurumV1core.borrow&#45;&gt;AurumV1core.getNftCollateralValue -->
<g id="edge2" class="edge" data-name="AurumV1core.borrow-&gt;AurumV1core.getNftCollateralValue">

<path fill="none" stroke="#1bc6a6" stroke-width="2" d="M163.32,-392.13C184.85,-395.43 211.24,-402.18 231.16,-416 254.25,-432.03 244.67,-451.13 267.16,-468 273.51,-472.77 280.61,-476.85 288,-480.34" style=""/>
<polygon fill="#1bc6a6" stroke="#1bc6a6" stroke-width="2" points="286.43,-483.47 297,-484.17 289.17,-477.03 286.43,-483.47" style=""/>
</g>
<!-- AurumV1core.depositERC721Collateral -->
<g id="node13" class="node" pointer-events="visible" data-name="AurumV1core.depositERC721Collateral">

<ellipse fill="#edad56" stroke="#edad56" stroke-width="3" cx="615.69" cy="-227" rx="110.05" ry="18" style=""/>
<text text-anchor="middle" x="615.69" y="-222.8" font-family="Times,serif" font-size="14.00" style="">depositERC721Collateral</text>
</g>
<!-- AurumV1core.borrow&#45;&gt;AurumV1core.depositERC721Collateral -->
<g id="edge6" class="edge" data-name="AurumV1core.borrow-&gt;AurumV1core.depositERC721Collateral">

<path fill="none" stroke="#1bc6a6" stroke-width="2" d="M162.75,-384.53C183.98,-380.81 210.24,-374.07 231.16,-362 251.03,-350.53 247.59,-336.98 267.16,-325 358.28,-269.2 393.65,-281.73 496.84,-254 508.35,-250.91 520.55,-247.86 532.57,-244.99" style=""/>
<polygon fill="#1bc6a6" stroke="#1bc6a6" stroke-width="2" points="533.11,-248.45 542.05,-242.76 531.51,-241.64 533.11,-248.45" style=""/>
</g>
<!-- AurumV1core.IERC165 -->
<g id="node16" class="node" pointer-events="visible" data-name="AurumV1core.IERC165">

<ellipse fill="#edad56" stroke="#edad56" stroke-width="3" cx="615.69" cy="-409" rx="47.54" ry="18" style=""/>
<text text-anchor="middle" x="615.69" y="-404.8" font-family="Times,serif" font-size="14.00" style="">IERC165</text>
</g>
<!-- AurumV1core.borrow&#45;&gt;AurumV1core.IERC165 -->
<g id="edge4" class="edge" data-name="AurumV1core.borrow-&gt;AurumV1core.IERC165">

<path fill="none" stroke="#1bc6a6" stroke-width="2" d="M163.68,-389.72C226.4,-390.97 353.35,-393.91 460.84,-399 491.91,-400.47 526.47,-402.67 554.95,-404.63" style=""/>
<polygon fill="#1bc6a6" stroke="#1bc6a6" stroke-width="2" points="554.34,-408.09 564.56,-405.3 554.83,-401.11 554.34,-408.09" style=""/>
</g>
<!-- AurumV1core.type -->
<g id="node17" class="node" pointer-events="visible" data-name="AurumV1core.type">

<ellipse fill="#edad56" stroke="#edad56" stroke-width="3" cx="615.69" cy="-463" rx="27.83" ry="18" style=""/>
<text text-anchor="middle" x="615.69" y="-458.8" font-family="Times,serif" font-size="14.00" style="">type</text>
</g>
<!-- AurumV1core.borrow&#45;&gt;AurumV1core.type -->
<g id="edge5" class="edge" data-name="AurumV1core.borrow-&gt;AurumV1core.type">

<path fill="none" stroke="#1bc6a6" stroke-width="2" d="M162.75,-393.47C183.98,-397.19 210.24,-403.93 231.16,-416 251.03,-427.47 246.15,-443.77 267.16,-453 320.96,-476.64 494.01,-470.1 573.75,-465.62" style=""/>
<polygon fill="#1bc6a6" stroke="#1bc6a6" stroke-width="2" points="573.81,-469.12 583.59,-465.04 573.4,-462.13 573.81,-469.12" style=""/>
</g>
<!-- AurumV1core.payable -->
<g id="node18" class="node" pointer-events="visible" data-name="AurumV1core.payable">

<ellipse fill="#edad56" stroke="#edad56" stroke-width="3" cx="364" cy="-426" rx="41.13" ry="18" style=""/>
<text text-anchor="middle" x="364" y="-421.8" font-family="Times,serif" font-size="14.00" style="">payable</text>
</g>
<!-- AurumV1core.borrow&#45;&gt;AurumV1core.payable -->
<g id="edge8" class="edge" data-name="AurumV1core.borrow-&gt;AurumV1core.payable">

<path fill="none" stroke="#1bc6a6" stroke-width="2" d="M161.83,-394.78C201.88,-401 265.86,-410.92 310.89,-417.91" style=""/>
<polygon fill="#1bc6a6" stroke="#1bc6a6" stroke-width="2" points="310.22,-421.35 320.63,-419.43 311.29,-414.43 310.22,-421.35" style=""/>
</g>
<!-- collateralValue.mul -->
<g id="node27" class="node" pointer-events="visible" data-name="collateralValue.mul">

<ellipse fill="#edad56" stroke="#edad56" stroke-width="3" cx="364" cy="-142" rx="27" ry="18" style=""/>
<text text-anchor="middle" x="364" y="-137.8" font-family="Times,serif" font-size="14.00" style="">mul</text>
</g>
<!-- AurumV1core.borrow&#45;&gt;collateralValue.mul -->
<g id="edge3" class="edge" data-name="AurumV1core.borrow-&gt;collateralValue.mul">

<path fill="none" stroke="white" stroke-width="2" d="M163.82,-388.8C186.48,-386.57 213.84,-379.9 231.16,-362 283.34,-308.05 222.79,-257.55 267.16,-197 281.71,-177.14 305.76,-163.36 326.13,-154.57" style=""/>
<polygon fill="white" stroke="white" stroke-width="2" points="327.43,-157.82 335.41,-150.85 324.83,-151.32 327.43,-157.82" style=""/>
</g>
<!-- _amount.mul -->
<g id="node28" class="node" pointer-events="visible" data-name="_amount.mul">

<ellipse fill="#edad56" stroke="#edad56" stroke-width="3" cx="364" cy="-57" rx="27" ry="18" style=""/>
<text text-anchor="middle" x="364" y="-52.8" font-family="Times,serif" font-size="14.00" style="">mul</text>
</g>
<!-- AurumV1core.borrow&#45;&gt;_amount.mul -->
<g id="edge7" class="edge" data-name="AurumV1core.borrow-&gt;_amount.mul">

<path fill="none" stroke="white" stroke-width="2" d="M163.77,-389.29C186.7,-387.27 214.36,-380.66 231.16,-362 306.25,-278.56 204.1,-204.88 267.16,-112 281.05,-91.53 305.27,-77.73 325.88,-69.07" style=""/>
<polygon fill="white" stroke="white" stroke-width="2" points="326.93,-72.41 334.99,-65.53 324.4,-65.89 326.93,-72.41" style=""/>
</g>
<!-- AurumV1core.repay -->
<g id="node7" class="node" pointer-events="visible" data-name="AurumV1core.repay">

<ellipse fill="#ffbdb9" stroke="brown" stroke-width="3" cx="364" cy="-352" rx="32.46" ry="18" style=""/>
<text text-anchor="middle" x="364" y="-347.8" font-family="Times,serif" font-size="14.00" style="">repay</text>
</g>
<!-- AurumV1core.withdrawERC721Collateral -->
<g id="node14" class="node" pointer-events="visible" data-name="AurumV1core.withdrawERC721Collateral">

<ellipse fill="#edad56" stroke="#edad56" stroke-width="3" cx="615.69" cy="-281" rx="118.7" ry="18" style=""/>
<text text-anchor="middle" x="615.69" y="-276.8" font-family="Times,serif" font-size="14.00" style="">withdrawERC721Collateral</text>
</g>
<!-- AurumV1core.repay&#45;&gt;AurumV1core.withdrawERC721Collateral -->
<g id="edge11" class="edge" data-name="AurumV1core.repay-&gt;AurumV1core.withdrawERC721Collateral">

<path fill="none" stroke="#1bc6a6" stroke-width="2" d="M392.79,-341.85C419.3,-332.38 460.48,-318.21 496.84,-308 507.48,-305.01 518.74,-302.11 529.9,-299.39" style=""/>
<polygon fill="#1bc6a6" stroke="#1bc6a6" stroke-width="2" points="530.57,-302.82 539.48,-297.09 528.94,-296.02 530.57,-302.82" style=""/>
</g>
<!-- AurumV1core.repay&#45;&gt;AurumV1core.address -->
<g id="edge12" class="edge" data-name="AurumV1core.repay-&gt;AurumV1core.address">

<path fill="none" stroke="#1bc6a6" stroke-width="2" d="M396.88,-356.7C461.19,-365.33 610.86,-381.16 734.54,-362 764.28,-357.39 796.54,-347.16 821.39,-338.07" style=""/>
<polygon fill="#1bc6a6" stroke="#1bc6a6" stroke-width="2" points="822.33,-341.45 830.46,-334.65 819.87,-334.9 822.33,-341.45" style=""/>
</g>
<!-- AurumV1core.repay&#45;&gt;AurumV1core.IERC165 -->
<g id="edge9" class="edge" data-name="AurumV1core.repay-&gt;AurumV1core.IERC165">

<path fill="none" stroke="#1bc6a6" stroke-width="2" d="M395.61,-358.99C436.58,-368.34 509.92,-385.08 560.38,-396.6" style=""/>
<polygon fill="#1bc6a6" stroke="#1bc6a6" stroke-width="2" points="559.52,-400 570.05,-398.81 561.08,-393.17 559.52,-400" style=""/>
</g>
<!-- AurumV1core.repay&#45;&gt;AurumV1core.type -->
<g id="edge10" class="edge" data-name="AurumV1core.repay-&gt;AurumV1core.type">

<path fill="none" stroke="#1bc6a6" stroke-width="2" d="M392.41,-362.47C412.38,-370.78 439.53,-383.55 460.84,-399 479.41,-412.47 476.84,-424.76 496.84,-436 520.5,-449.3 550.34,-456.06 574.07,-459.48" style=""/>
<polygon fill="#1bc6a6" stroke="#1bc6a6" stroke-width="2" points="573.53,-462.94 583.89,-460.72 574.4,-456 573.53,-462.94" style=""/>
</g>
<!-- AurumV1core.set_Borrow_InterestRate -->
<g id="node8" class="node" pointer-events="visible" data-name="AurumV1core.set_Borrow_InterestRate">

<ellipse fill="#ffbdb9" stroke="#ffbdb9" stroke-width="3" cx="123.58" cy="-335" rx="107.66" ry="18" style=""/>
<text text-anchor="middle" x="123.58" y="-330.8" font-family="Times,serif" font-size="14.00" style="">set_Borrow_InterestRate</text>
</g>
<!-- AurumV1core.setLoanToCollateral -->
<g id="node9" class="node" pointer-events="visible" data-name="AurumV1core.setLoanToCollateral">

<ellipse fill="#ffbdb9" stroke="#ffbdb9" stroke-width="3" cx="123.58" cy="-281" rx="90.32" ry="18" style=""/>
<text text-anchor="middle" x="123.58" y="-276.8" font-family="Times,serif" font-size="14.00" style="">setLoanToCollateral</text>
</g>
<!-- AurumV1core.getUtilization -->
<g id="node10" class="node" pointer-events="visible" data-name="AurumV1core.getUtilization">

<ellipse fill="#ffbdb9" stroke="#ffbdb9" stroke-width="3" cx="123.58" cy="-227" rx="64.27" ry="18" style=""/>
<text text-anchor="middle" x="123.58" y="-222.8" font-family="Times,serif" font-size="14.00" style="">getUtilization</text>
</g>
<!-- AurumV1core.withdraw_liquidateNFT -->
<g id="node11" class="node" pointer-events="visible" data-name="AurumV1core.withdraw_liquidateNFT">

<ellipse fill="#ffbdb9" stroke="brown" stroke-width="3" cx="615.69" cy="-335" rx="104.24" ry="18" style=""/>
<text text-anchor="middle" x="615.69" y="-330.8" font-family="Times,serif" font-size="14.00" style="">withdraw_liquidateNFT</text>
</g>
<!-- AurumV1core.withdraw_liquidateNFT&#45;&gt;AurumV1core.address -->
<g id="edge13" class="edge" data-name="AurumV1core.withdraw_liquidateNFT-&gt;AurumV1core.address">

<path fill="none" stroke="#1bc6a6" stroke-width="2" d="M716.81,-329.33C748.99,-327.5 783.37,-325.55 810.77,-324" style=""/>
<polygon fill="#1bc6a6" stroke="#1bc6a6" stroke-width="2" points="810.82,-327.5 820.6,-323.44 810.42,-320.51 810.82,-327.5" style=""/>
</g>
<!-- AurumV1core.getNftCollateralValue&#45;&gt;AurumV1core.IERC165 -->
<g id="edge15" class="edge" data-name="AurumV1core.getNftCollateralValue-&gt;AurumV1core.IERC165">

<path fill="none" stroke="#1bc6a6" stroke-width="2" d="M401.25,-482.15C438.55,-463.83 491.89,-437.74 496.84,-436 516.41,-429.11 538.44,-423.51 558.11,-419.24" style=""/>
<polygon fill="#1bc6a6" stroke="#1bc6a6" stroke-width="2" points="558.6,-422.71 567.68,-417.24 557.17,-415.86 558.6,-422.71" style=""/>
</g>
<!-- AurumV1core.getNftCollateralValue&#45;&gt;AurumV1core.type -->
<g id="edge16" class="edge" data-name="AurumV1core.getNftCollateralValue-&gt;AurumV1core.type">

<path fill="none" stroke="#1bc6a6" stroke-width="2" d="M442.97,-488.45C486.62,-481.98 539.21,-474.18 574.59,-468.94" style=""/>
<polygon fill="#1bc6a6" stroke="#1bc6a6" stroke-width="2" points="574.88,-472.44 584.26,-467.51 573.86,-465.51 574.88,-472.44" style=""/>
</g>
<!-- AurumV1core.getNFTPrice -->
<g id="node19" class="node" pointer-events="visible" data-name="AurumV1core.getNFTPrice">

<ellipse fill="#edad56" stroke="#edad56" stroke-width="3" cx="615.69" cy="-517" rx="60.84" ry="18" style=""/>
<text text-anchor="middle" x="615.69" y="-512.8" font-family="Times,serif" font-size="14.00" style="">getNFTPrice</text>
</g>
<!-- AurumV1core.getNftCollateralValue&#45;&gt;AurumV1core.getNFTPrice -->
<g id="edge14" class="edge" data-name="AurumV1core.getNftCollateralValue-&gt;AurumV1core.getNFTPrice">

<path fill="none" stroke="#1bc6a6" stroke-width="2" d="M456.91,-506.26C484.99,-508.17 515.47,-510.24 542.08,-512.06" style=""/>
<polygon fill="#1bc6a6" stroke="#1bc6a6" stroke-width="2" points="541.57,-515.53 551.79,-512.72 542.05,-508.55 541.57,-515.53" style=""/>
</g>
<!-- AurumV1core.depositERC721Collateral&#45;&gt;AurumV1core.address -->
<g id="edge22" class="edge" data-name="AurumV1core.depositERC721Collateral-&gt;AurumV1core.address">

<path fill="none" stroke="#1bc6a6" stroke-width="2" d="M696.19,-240.41C709.32,-243.97 722.55,-248.43 734.54,-254 752.68,-262.42 753.23,-270.98 770.54,-281 786.08,-289.99 804.03,-298.17 820,-304.75" style=""/>
<polygon fill="#1bc6a6" stroke="#1bc6a6" stroke-width="2" points="818.36,-307.87 828.94,-308.34 820.96,-301.37 818.36,-307.87" style=""/>
</g>
<!-- AurumV1core.IERC721Enumerable -->
<g id="node20" class="node" pointer-events="visible" data-name="AurumV1core.IERC721Enumerable">

<ellipse fill="#edad56" stroke="#edad56" stroke-width="3" cx="864.71" cy="-254" rx="94.34" ry="18" style=""/>
<text text-anchor="middle" x="864.71" y="-249.8" font-family="Times,serif" font-size="14.00" style="">IERC721Enumerable</text>
</g>
<!-- AurumV1core.depositERC721Collateral&#45;&gt;AurumV1core.IERC721Enumerable -->
<g id="edge17" class="edge" data-name="AurumV1core.depositERC721Collateral-&gt;AurumV1core.IERC721Enumerable">

<path fill="none" stroke="#1bc6a6" stroke-width="2" d="M710.43,-237.25C729.06,-239.28 748.65,-241.42 767.37,-243.47" style=""/>
<polygon fill="#1bc6a6" stroke="#1bc6a6" stroke-width="2" points="766.83,-246.93 777.15,-244.54 767.59,-239.97 766.83,-246.93" style=""/>
</g>
<!-- IERC721Enumerable.balanceOf -->
<g id="node29" class="node" pointer-events="visible" data-name="IERC721Enumerable.balanceOf">

<ellipse fill="#edad56" stroke="#edad56" stroke-width="3" cx="864.71" cy="-34" rx="50.92" ry="18" style=""/>
<text text-anchor="middle" x="864.71" y="-29.8" font-family="Times,serif" font-size="14.00" style="">balanceOf</text>
</g>
<!-- AurumV1core.depositERC721Collateral&#45;&gt;IERC721Enumerable.balanceOf -->
<g id="edge18" class="edge" data-name="AurumV1core.depositERC721Collateral-&gt;IERC721Enumerable.balanceOf">

<path fill="none" stroke="white" stroke-width="2" d="M625.95,-207.86C647.37,-171.37 703.65,-93.26 770.54,-52 779.71,-46.34 790.11,-41.83 800.56,-38.38" style=""/>
<polygon fill="white" stroke="white" stroke-width="2" points="801.26,-41.82 809.88,-35.66 799.29,-35.1 801.26,-41.82" style=""/>
</g>
<!-- AurumV1core.depositERC721Collateral&#45;&gt;IERC721Enumerable.balanceOf -->
<g id="edge20" class="edge" data-name="AurumV1core.depositERC721Collateral-&gt;IERC721Enumerable.balanceOf">

<path fill="none" stroke="white" stroke-width="2" d="M633.19,-207.76C658.45,-174.49 710.18,-107.24 770.54,-70 784.09,-61.64 800.34,-55.77 815.44,-51.25" style=""/>
<polygon fill="white" stroke="white" stroke-width="2" points="816.21,-54.67 824.87,-48.56 814.29,-47.93 816.21,-54.67" style=""/>
</g>
<!-- IERC721Enumerable.ownerOf -->
<g id="node30" class="node" pointer-events="visible" data-name="IERC721Enumerable.ownerOf">

<ellipse fill="#edad56" stroke="#edad56" stroke-width="3" cx="864.71" cy="-88" rx="45.22" ry="18" style=""/>
<text text-anchor="middle" x="864.71" y="-83.8" font-family="Times,serif" font-size="14.00" style="">ownerOf</text>
</g>
<!-- AurumV1core.depositERC721Collateral&#45;&gt;IERC721Enumerable.ownerOf -->
<g id="edge19" class="edge" data-name="AurumV1core.depositERC721Collateral-&gt;IERC721Enumerable.ownerOf">

<path fill="none" stroke="white" stroke-width="2" d="M637.56,-208.1C665.79,-183.44 718.62,-140.44 770.54,-115 783.16,-108.82 797.46,-103.79 810.99,-99.83" style=""/>
<polygon fill="white" stroke="white" stroke-width="2" points="811.5,-103.32 820.22,-97.3 809.65,-96.57 811.5,-103.32" style=""/>
</g>
<!-- IERC721Enumerable.transferFrom -->
<g id="node31" class="node" pointer-events="visible" data-name="IERC721Enumerable.transferFrom">

<ellipse fill="#edad56" stroke="#edad56" stroke-width="3" cx="864.71" cy="-142" rx="61.41" ry="18" style=""/>
<text text-anchor="middle" x="864.71" y="-137.8" font-family="Times,serif" font-size="14.00" style="">transferFrom</text>
</g>
<!-- AurumV1core.depositERC721Collateral&#45;&gt;IERC721Enumerable.transferFrom -->
<g id="edge21" class="edge" data-name="AurumV1core.depositERC721Collateral-&gt;IERC721Enumerable.transferFrom">

<path fill="none" stroke="white" stroke-width="2" d="M666.98,-209.7C708.58,-195.38 767.52,-175.1 810.03,-160.47" style=""/>
<polygon fill="white" stroke="white" stroke-width="2" points="810.92,-163.87 819.24,-157.3 808.65,-157.25 810.92,-163.87" style=""/>
</g>
<!-- AurumV1core.withdrawERC721Collateral&#45;&gt;AurumV1core.address -->
<g id="edge25" class="edge" data-name="AurumV1core.withdrawERC721Collateral-&gt;AurumV1core.address">

<path fill="none" stroke="#1bc6a6" stroke-width="2" d="M718.95,-290.9C753.09,-296.14 789.47,-302.44 817.22,-308.06" style=""/>
<polygon fill="#1bc6a6" stroke="#1bc6a6" stroke-width="2" points="816.25,-311.43 826.75,-310.05 817.68,-304.58 816.25,-311.43" style=""/>
</g>
<!-- AurumV1core.withdrawERC721Collateral&#45;&gt;AurumV1core.address -->
<g id="edge27" class="edge" data-name="AurumV1core.withdrawERC721Collateral-&gt;AurumV1core.address">

<path fill="none" stroke="#1bc6a6" stroke-width="2" d="M680.63,-297.35C721.03,-305 772.63,-313.24 810.74,-318.08" style=""/>
<polygon fill="#1bc6a6" stroke="#1bc6a6" stroke-width="2" points="810.27,-321.55 820.62,-319.28 811.11,-314.6 810.27,-321.55" style=""/>
</g>
<!-- AurumV1core.withdrawERC721Collateral&#45;&gt;AurumV1core.IERC721Enumerable -->
<g id="edge23" class="edge" data-name="AurumV1core.withdrawERC721Collateral-&gt;AurumV1core.IERC721Enumerable">

<path fill="none" stroke="#1bc6a6" stroke-width="2" d="M715.38,-270.21C732.52,-268.34 750.32,-266.39 767.39,-264.53" style=""/>
<polygon fill="#1bc6a6" stroke="#1bc6a6" stroke-width="2" points="767.71,-268.01 777.27,-263.45 766.95,-261.06 767.71,-268.01" style=""/>
</g>
<!-- AurumV1core.withdrawERC721Collateral&#45;&gt;IERC721Enumerable.ownerOf -->
<g id="edge24" class="edge" data-name="AurumV1core.withdrawERC721Collateral-&gt;IERC721Enumerable.ownerOf">

<path fill="none" stroke="white" stroke-width="2" d="M711.67,-269.36C720.09,-265.46 727.92,-260.44 734.54,-254 780.3,-209.52 726.07,-160.77 770.54,-115 780.25,-105.01 793.4,-98.66 806.77,-94.64" style=""/>
<polygon fill="white" stroke="white" stroke-width="2" points="807.23,-98.13 816.07,-92.3 805.52,-91.34 807.23,-98.13" style=""/>
</g>
<!-- AurumV1core.withdrawERC721Collateral&#45;&gt;IERC721Enumerable.transferFrom -->
<g id="edge26" class="edge" data-name="AurumV1core.withdrawERC721Collateral-&gt;IERC721Enumerable.transferFrom">

<path fill="none" stroke="white" stroke-width="2" d="M706.48,-268.36C716.46,-264.7 726.06,-260.01 734.54,-254 758.99,-236.68 749.04,-217.87 770.54,-197 783.99,-183.95 801.11,-172.71 817,-163.87" style=""/>
<polygon fill="white" stroke="white" stroke-width="2" points="818.43,-167.07 825.61,-159.28 815.13,-160.89 818.43,-167.07" style=""/>
</g>
<!-- NFTPrice.getNFTPrice -->
<g id="node21" class="node" pointer-events="visible" data-name="NFTPrice.getNFTPrice">

<ellipse fill="#ff9797" stroke="#ff9797" stroke-width="3" cx="123.58" cy="-883" rx="60.84" ry="18" style=""/>
<text text-anchor="middle" x="123.58" y="-878.8" font-family="Times,serif" font-size="14.00" style="">getNFTPrice</text>
</g>
<!-- NFTPrice._getNFTPrice -->
<g id="node23" class="node" pointer-events="visible" data-name="NFTPrice._getNFTPrice">

<ellipse fill="#edad56" stroke="#edad56" stroke-width="3" cx="364" cy="-829" rx="66" ry="18" style=""/>
<text text-anchor="middle" x="364" y="-824.8" font-family="Times,serif" font-size="14.00" style="">_getNFTPrice</text>
</g>
<!-- NFTPrice.getNFTPrice&#45;&gt;NFTPrice._getNFTPrice -->
<g id="edge32" class="edge" data-name="NFTPrice.getNFTPrice-&gt;NFTPrice._getNFTPrice">

<path fill="none" stroke="#1bc6a6" stroke-width="2" d="M130.24,-863.71C159.62,-813.61 295.34,-778.76 344.86,-802.76" style=""/>
<polygon fill="#1bc6a6" stroke="#1bc6a6" stroke-width="2" points="342.78,-805.58 352.99,-808.43 346.78,-799.84 342.78,-805.58" style=""/>
</g>
<!-- NFTPrice.getNFTPrice&#45;&gt;NFTPrice._getNFTPrice -->
<g id="edge34" class="edge" data-name="NFTPrice.getNFTPrice-&gt;NFTPrice._getNFTPrice">

<path fill="none" stroke="#1bc6a6" stroke-width="2" d="M133.92,-863.88C166.78,-829.43 277.94,-800.53 332.41,-807.75" style=""/>
<polygon fill="#1bc6a6" stroke="#1bc6a6" stroke-width="2" points="331.48,-811.13 341.99,-809.76 332.92,-804.28 331.48,-811.13" style=""/>
</g>
<!-- NFTPrice.getNFTPrice&#45;&gt;NFTPrice._getNFTPrice -->
<g id="edge36" class="edge" data-name="NFTPrice.getNFTPrice-&gt;NFTPrice._getNFTPrice">

<path fill="none" stroke="#1bc6a6" stroke-width="2" d="M141.34,-864.53C172.78,-845.61 242.15,-826.57 294.98,-819.75" style=""/>
<polygon fill="#1bc6a6" stroke="#1bc6a6" stroke-width="2" points="295.12,-823.26 304.67,-818.66 294.34,-816.3 295.12,-823.26" style=""/>
</g>
<!-- NFTPrice.getNFTPrice&#45;&gt;NFTPrice._getNFTPrice -->
<g id="edge38" class="edge" data-name="NFTPrice.getNFTPrice-&gt;NFTPrice._getNFTPrice">

<path fill="none" stroke="#1bc6a6" stroke-width="2" d="M155.75,-866.48C188.26,-855.28 240.51,-842.34 284.41,-834.02" style=""/>
<polygon fill="#1bc6a6" stroke="#1bc6a6" stroke-width="2" points="284.96,-837.48 294.16,-832.24 283.7,-830.59 284.96,-837.48" style=""/>
</g>
<!-- NFTPrice.getNFTPrice&#45;&gt;NFTPrice._getNFTPrice -->
<g id="edge40" class="edge" data-name="NFTPrice.getNFTPrice-&gt;NFTPrice._getNFTPrice">

<path fill="none" stroke="#1bc6a6" stroke-width="2" d="M174.27,-871.75C210.27,-863.59 259.28,-852.49 298.33,-843.65" style=""/>
<polygon fill="#1bc6a6" stroke="#1bc6a6" stroke-width="2" points="298.96,-847.09 307.94,-841.47 297.42,-840.26 298.96,-847.09" style=""/>
</g>
<!-- NFTPrice.getNFTPrice&#45;&gt;NFTPrice._getNFTPrice -->
<g id="edge42" class="edge" data-name="NFTPrice.getNFTPrice-&gt;NFTPrice._getNFTPrice">

<path fill="none" stroke="#1bc6a6" stroke-width="2" d="M185.36,-881.17C227.01,-874.16 281.29,-861.47 318.84,-849.77" style=""/>
<polygon fill="#1bc6a6" stroke="#1bc6a6" stroke-width="2" points="319.58,-853.2 328.01,-846.78 317.42,-846.55 319.58,-853.2" style=""/>
</g>
<!-- NFTPrice.getNFTPrice&#45;&gt;NFTPrice._getNFTPrice -->
<g id="edge44" class="edge" data-name="NFTPrice.getNFTPrice-&gt;NFTPrice._getNFTPrice">

<path fill="none" stroke="#1bc6a6" stroke-width="2" d="M174.56,-894.14C223.09,-890.37 295.03,-872.68 334.51,-853.72" style=""/>
<polygon fill="#1bc6a6" stroke="#1bc6a6" stroke-width="2" points="336.03,-856.88 343.21,-849.09 332.74,-850.7 336.03,-856.88" style=""/>
</g>
<!-- NFTPrice.getNFTPrice&#45;&gt;NFTPrice._getNFTPrice -->
<g id="edge46" class="edge" data-name="NFTPrice.getNFTPrice-&gt;NFTPrice._getNFTPrice">

<path fill="none" stroke="#1bc6a6" stroke-width="2" d="M142.11,-901.46C185.72,-915.41 298.84,-890.05 343.98,-856.52" style=""/>
<polygon fill="#1bc6a6" stroke="#1bc6a6" stroke-width="2" points="346.15,-859.27 351.4,-850.07 341.56,-853.99 346.15,-859.27" style=""/>
</g>
<!-- NFTPrice.getNFTPrice&#45;&gt;NFTPrice._getNFTPrice -->
<g id="edge48" class="edge" data-name="NFTPrice.getNFTPrice-&gt;NFTPrice._getNFTPrice">

<path fill="none" stroke="#1bc6a6" stroke-width="2" d="M132.51,-902.24C167.21,-936.4 305.83,-906.85 349.65,-858.59" style=""/>
<polygon fill="#1bc6a6" stroke="#1bc6a6" stroke-width="2" points="352.3,-860.9 355.48,-850.79 346.69,-856.71 352.3,-860.9" style=""/>
</g>
<!-- NFTPrice.ERC721 -->
<g id="node24" class="node" pointer-events="visible" data-name="NFTPrice.ERC721">

<ellipse fill="#edad56" stroke="#edad56" stroke-width="3" cx="364" cy="-883" rx="44.11" ry="18" style=""/>
<text text-anchor="middle" x="364" y="-878.8" font-family="Times,serif" font-size="14.00" style="">ERC721</text>
</g>
<!-- NFTPrice.getNFTPrice&#45;&gt;NFTPrice.ERC721 -->
<g id="edge28" class="edge" data-name="NFTPrice.getNFTPrice-&gt;NFTPrice.ERC721">

<path fill="none" stroke="#1bc6a6" stroke-width="2" d="M185.67,-883C222.65,-883 269.52,-883 305.79,-883" style=""/>
<polygon fill="#1bc6a6" stroke="#1bc6a6" stroke-width="2" points="305.6,-886.5 315.6,-883 305.6,-879.5 305.6,-886.5" style=""/>
</g>
<!-- NFTPrice.address -->
<g id="node25" class="node" pointer-events="visible" data-name="NFTPrice.address">

<ellipse fill="#edad56" stroke="#edad56" stroke-width="3" cx="364" cy="-937" rx="40" ry="18" style=""/>
<text text-anchor="middle" x="364" y="-932.8" font-family="Times,serif" font-size="14.00" style="">address</text>
</g>
<!-- NFTPrice.getNFTPrice&#45;&gt;NFTPrice.address -->
<g id="edge31" class="edge" data-name="NFTPrice.getNFTPrice-&gt;NFTPrice.address">

<path fill="none" stroke="#1bc6a6" stroke-width="2" d="M132.51,-863.76C167.28,-829.52 306.44,-859.28 349.93,-907.72" style=""/>
<polygon fill="#1bc6a6" stroke="#1bc6a6" stroke-width="2" points="346.95,-909.57 355.7,-915.55 352.59,-905.42 346.95,-909.57" style=""/>
</g>
<!-- NFTPrice.getNFTPrice&#45;&gt;NFTPrice.address -->
<g id="edge33" class="edge" data-name="NFTPrice.getNFTPrice-&gt;NFTPrice.address">

<path fill="none" stroke="#1bc6a6" stroke-width="2" d="M142.11,-864.54C185.82,-850.56 299.35,-876.06 344.29,-909.71" style=""/>
<polygon fill="#1bc6a6" stroke="#1bc6a6" stroke-width="2" points="341.83,-912.21 351.65,-916.18 346.45,-906.95 341.83,-912.21" style=""/>
</g>
<!-- NFTPrice.getNFTPrice&#45;&gt;NFTPrice.address -->
<g id="edge35" class="edge" data-name="NFTPrice.getNFTPrice-&gt;NFTPrice.address">

<path fill="none" stroke="#1bc6a6" stroke-width="2" d="M174.56,-871.86C223.83,-875.68 297.24,-893.86 336.3,-913.15" style=""/>
<polygon fill="#1bc6a6" stroke="#1bc6a6" stroke-width="2" points="334.37,-916.08 344.82,-917.83 337.74,-909.95 334.37,-916.08" style=""/>
</g>
<!-- NFTPrice.getNFTPrice&#45;&gt;NFTPrice.address -->
<g id="edge37" class="edge" data-name="NFTPrice.getNFTPrice-&gt;NFTPrice.address">

<path fill="none" stroke="#1bc6a6" stroke-width="2" d="M185.36,-884.83C229.36,-892.24 287.47,-905.98 325.04,-918.21" style=""/>
<polygon fill="#1bc6a6" stroke="#1bc6a6" stroke-width="2" points="323.49,-921.38 334.08,-921.3 325.76,-914.75 323.49,-921.38" style=""/>
</g>
<!-- NFTPrice.getNFTPrice&#45;&gt;NFTPrice.address -->
<g id="edge39" class="edge" data-name="NFTPrice.getNFTPrice-&gt;NFTPrice.address">

<path fill="none" stroke="#1bc6a6" stroke-width="2" d="M174.27,-894.25C215.27,-903.54 273.15,-916.65 313.97,-925.9" style=""/>
<polygon fill="#1bc6a6" stroke="#1bc6a6" stroke-width="2" points="313.11,-929.29 323.63,-928.08 314.65,-922.46 313.11,-929.29" style=""/>
</g>
<!-- NFTPrice.getNFTPrice&#45;&gt;NFTPrice.address -->
<g id="edge41" class="edge" data-name="NFTPrice.getNFTPrice-&gt;NFTPrice.address">

<path fill="none" stroke="#1bc6a6" stroke-width="2" d="M155.75,-899.52C194.86,-912.99 262.54,-928.98 309.88,-936.42" style=""/>
<polygon fill="#1bc6a6" stroke="#1bc6a6" stroke-width="2" points="309.26,-939.87 319.66,-937.85 310.27,-932.94 309.26,-939.87" style=""/>
</g>
<!-- NFTPrice.getNFTPrice&#45;&gt;NFTPrice.address -->
<g id="edge43" class="edge" data-name="NFTPrice.getNFTPrice-&gt;NFTPrice.address">

<path fill="none" stroke="#1bc6a6" stroke-width="2" d="M141.34,-901.47C177.69,-923.35 264.79,-945.39 318.34,-948.5" style=""/>
<polygon fill="#1bc6a6" stroke="#1bc6a6" stroke-width="2" points="318.06,-951.99 328.16,-948.78 318.27,-945 318.06,-951.99" style=""/>
</g>
<!-- NFTPrice.getNFTPrice&#45;&gt;NFTPrice.address -->
<g id="edge45" class="edge" data-name="NFTPrice.getNFTPrice-&gt;NFTPrice.address">

<path fill="none" stroke="#1bc6a6" stroke-width="2" d="M133.92,-902.12C167.27,-937.08 281.24,-966.32 334.78,-957.91" style=""/>
<polygon fill="#1bc6a6" stroke="#1bc6a6" stroke-width="2" points="335.48,-961.34 344.35,-955.56 333.81,-954.54 335.48,-961.34" style=""/>
</g>
<!-- NFTPrice.getNFTPrice&#45;&gt;NFTPrice.address -->
<g id="edge47" class="edge" data-name="NFTPrice.getNFTPrice-&gt;NFTPrice.address">

<path fill="none" stroke="#1bc6a6" stroke-width="2" d="M130.24,-902.29C159.62,-952.39 295.34,-987.24 344.86,-963.24" style=""/>
<polygon fill="#1bc6a6" stroke="#1bc6a6" stroke-width="2" points="346.78,-966.16 352.99,-957.57 342.78,-960.42 346.78,-966.16" style=""/>
</g>
<!-- ERC721.symbol -->
<g id="node32" class="node" pointer-events="visible" data-name="ERC721.symbol">

<ellipse fill="#edad56" stroke="#edad56" stroke-width="3" cx="364" cy="-744" rx="39.45" ry="18" style=""/>
<text text-anchor="middle" x="364" y="-739.8" font-family="Times,serif" font-size="14.00" style="">symbol</text>
</g>
<!-- NFTPrice.getNFTPrice&#45;&gt;ERC721.symbol -->
<g id="edge29" class="edge" data-name="NFTPrice.getNFTPrice-&gt;ERC721.symbol">

<path fill="none" stroke="white" stroke-width="2" d="M182.26,-876.65C199.18,-872.7 216.94,-866.31 231.16,-856 255.41,-838.4 245.52,-819.73 267.16,-799 282.76,-784.04 303.19,-771.6 321.18,-762.35" style=""/>
<polygon fill="white" stroke="white" stroke-width="2" points="322.72,-765.5 330.15,-757.94 319.63,-759.22 322.72,-765.5" style=""/>
</g>
<!-- ERC721.ownerOf -->
<g id="node33" class="node" pointer-events="visible" data-name="ERC721.ownerOf">

<ellipse fill="#edad56" stroke="#edad56" stroke-width="3" cx="364" cy="-690" rx="45.22" ry="18" style=""/>
<text text-anchor="middle" x="364" y="-685.8" font-family="Times,serif" font-size="14.00" style="">ownerOf</text>
</g>
<!-- NFTPrice.getNFTPrice&#45;&gt;ERC721.ownerOf -->
<g id="edge30" class="edge" data-name="NFTPrice.getNFTPrice-&gt;ERC721.ownerOf">

<path fill="none" stroke="white" stroke-width="2" d="M184.43,-879.2C201.44,-875.35 218.71,-868.38 231.16,-856 276.4,-811 222.51,-762.6 267.16,-717 277.44,-706.49 291.48,-699.98 305.64,-695.98" style=""/>
<polygon fill="white" stroke="white" stroke-width="2" points="306.13,-699.46 315.07,-693.76 304.53,-692.65 306.13,-699.46" style=""/>
</g>
<!-- NFTPrice.get_ETHtoUSD_Price -->
<g id="node22" class="node" pointer-events="visible" data-name="NFTPrice.get_ETHtoUSD_Price">

<ellipse fill="#ff9797" stroke="#ff9797" stroke-width="3" cx="123.58" cy="-829" rx="97.87" ry="18" style=""/>
<text text-anchor="middle" x="123.58" y="-824.8" font-family="Times,serif" font-size="14.00" style="">get_ETHtoUSD_Price</text>
</g>
<!-- NFTPrice.get_ETHtoUSD_Price&#45;&gt;NFTPrice._getNFTPrice -->
<g id="edge49" class="edge" data-name="NFTPrice.get_ETHtoUSD_Price-&gt;NFTPrice._getNFTPrice">

<path fill="none" stroke="#1bc6a6" stroke-width="2" d="M222.93,-829C243.24,-829 264.39,-829 283.92,-829" style=""/>
<polygon fill="#1bc6a6" stroke="#1bc6a6" stroke-width="2" points="283.79,-832.5 293.79,-829 283.79,-825.5 283.79,-832.5" style=""/>
</g>
<!-- NFTPrice.AggregatorV3Interface -->
<g id="node26" class="node" pointer-events="visible" data-name="NFTPrice.AggregatorV3Interface">

<ellipse fill="#edad56" stroke="#edad56" stroke-width="3" cx="615.69" cy="-829" rx="101.24" ry="18" style=""/>
<text text-anchor="middle" x="615.69" y="-824.8" font-family="Times,serif" font-size="14.00" style="">AggregatorV3Interface</text>
</g>
<!-- NFTPrice._getNFTPrice&#45;&gt;NFTPrice.AggregatorV3Interface -->
<g id="edge50" class="edge" data-name="NFTPrice._getNFTPrice-&gt;NFTPrice.AggregatorV3Interface">

<path fill="none" stroke="#1bc6a6" stroke-width="2" d="M431.25,-829C452.56,-829 476.82,-829 500.55,-829" style=""/>
<polygon fill="#1bc6a6" stroke="#1bc6a6" stroke-width="2" points="500.25,-832.5 510.25,-829 500.25,-825.5 500.25,-832.5" style=""/>
</g>
<!-- AggregatorV3Interface.latestRoundData -->
<g id="node34" class="node" pointer-events="visible" data-name="AggregatorV3Interface.latestRoundData">

<ellipse fill="#edad56" stroke="#edad56" stroke-width="3" cx="615.69" cy="-744" rx="75.3" ry="18" style=""/>
<text text-anchor="middle" x="615.69" y="-739.8" font-family="Times,serif" font-size="14.00" style="">latestRoundData</text>
</g>
<!-- NFTPrice._getNFTPrice&#45;&gt;AggregatorV3Interface.latestRoundData -->
<g id="edge51" class="edge" data-name="NFTPrice._getNFTPrice-&gt;AggregatorV3Interface.latestRoundData">

<path fill="none" stroke="white" stroke-width="2" d="M410.94,-815.03C426.79,-810.1 444.64,-804.43 460.84,-799 493.78,-787.96 530.43,-774.89 559.69,-764.26" style=""/>
<polygon fill="white" stroke="white" stroke-width="2" points="560.7,-767.62 568.9,-760.91 558.3,-761.04 560.7,-767.62" style=""/>
</g>
<!-- key -->
<g id="node35" class="node" pointer-events="visible" data-name="key">

<polygon fill="#edad56" stroke="none" stroke-width="3" points="188.58,-1092 58.58,-1092 58.58,-1004 188.58,-1004 188.58,-1092" style=""/>
<text text-anchor="start" x="108.22" y="-1073.4" font-family="Times,serif" font-size="14.00" style="">Internal Call</text>
<text text-anchor="start" x="104.33" y="-1053.4" font-family="Times,serif" font-size="14.00" style="">External Call</text>
<text text-anchor="start" x="81.78" y="-1033.4" font-family="Times,serif" font-size="14.00" style="">Defined Contract</text>
<text text-anchor="start" x="68.18" y="-1013.4" font-family="Times,serif" font-size="14.00" style="">Undefined Contract</text>
</g>
<!-- key2 -->
<g id="node36" class="node" pointer-events="visible" data-name="key2">

<polygon fill="#edad56" stroke="none" stroke-width="3" points="391,-1092 337,-1092 337,-1004 391,-1004 391,-1092" style=""/>
<text text-anchor="start" x="354" y="-1073.4" font-family="Times,serif" font-size="14.00" style="">   </text>
<text text-anchor="start" x="354" y="-1053.4" font-family="Times,serif" font-size="14.00" style="">   </text>
<polygon fill="#445773" stroke="none" points="352,-1028 352,-1048 377,-1048 377,-1028 352,-1028" style=""/>
<text text-anchor="start" x="354" y="-1033.4" font-family="Times,serif" font-size="14.00" style="">   </text>
<polygon fill="none" stroke="#e8726d" points="354,-1010 354,-1026 375,-1026 375,-1010 354,-1010" style=""/>
</g>
<!-- key&#45;&gt;key2 -->
<g id="edge52" class="edge" data-name="key-&gt;key2">

<path fill="none" stroke="#1bc6a6" stroke-width="2" d="M181.58,-1078C252.46,-1078 273.3,-1078 338.32,-1078" style=""/>
<polygon fill="#1bc6a6" stroke="#1bc6a6" stroke-width="2" points="337.97,-1081.5 347.97,-1078 337.97,-1074.5 337.97,-1081.5" style=""/>
</g>
<!-- key&#45;&gt;key2 -->
<g id="edge53" class="edge" data-name="key-&gt;key2">

<path fill="none" stroke="white" stroke-width="2" d="M181.58,-1058C252.46,-1058 273.3,-1058 338.32,-1058" style=""/>
<polygon fill="white" stroke="white" stroke-width="2" points="337.97,-1061.5 347.97,-1058 337.97,-1054.5 337.97,-1061.5" style=""/>
</g>
</g>
</svg>