<?xml version="1.0" standalone="no"?>
<svg xmlns="http://www.w3.org/2000/svg" xmlns:xlink="http://www.w3.org/1999/xlink" width="1559pt" height="1316pt" viewBox="0.00 0.00 1558.96 1316.22">
<g id="graph0" class="graph" transform="translate(4,1312.219970703125) scale(1)" data-name="G">

<polygon fill="#2e3e56" stroke="none" points="-4,4 -4,-1312.22 1554.96,-1312.22 1554.96,4 -4,4"/>





<!-- AurumV1core.&lt;Constructor&gt; -->
<g id="node1" class="node" pointer-events="visible" data-name="AurumV1core.&lt;Constructor&gt;">

<ellipse fill="#ff9797" stroke="brown" stroke-width="3" cx="1148.33" cy="-396.11" rx="67.55" ry="18"/>
<text text-anchor="middle" x="1148.33" y="-391.91" font-family="Times,serif" font-size="14.00">&lt;Constructor&gt;</text>
</g>
<!-- AurumV1core.depositToPool -->
<g id="node2" class="node" pointer-events="visible" data-name="AurumV1core.depositToPool">

<ellipse fill="#ffbdb9" stroke="brown" stroke-width="3" cx="1080.34" cy="-126.76" rx="67.24" ry="18"/>
<text text-anchor="middle" x="1080.34" y="-122.56" font-family="Times,serif" font-size="14.00">depositToPool</text>
</g>
<!-- AurumV1core.address -->
<g id="node14" class="node" pointer-events="visible" data-name="AurumV1core.address">

<ellipse fill="#edad56" stroke="#edad56" stroke-width="3" cx="489.11" cy="-54.97" rx="40" ry="18"/>
<text text-anchor="middle" x="489.11" y="-50.77" font-family="Times,serif" font-size="14.00">address</text>
</g>
<!-- AurumV1core.depositToPool&#45;&gt;AurumV1core.address -->
<g id="edge2" class="edge" data-name="AurumV1core.depositToPool-&gt;AurumV1core.address">

<path fill="none" stroke="#1bc6a6" stroke-width="2" d="M1017.35,-119.11C900.24,-104.89 651.03,-74.63 542.01,-61.39"/>
<polygon fill="#1bc6a6" stroke="#1bc6a6" stroke-width="2" points="542.48,-57.92 532.13,-60.19 541.64,-64.87 542.48,-57.92"/>
</g>
<!-- _amount.mul -->
<g id="node18" class="node" pointer-events="visible" data-name="_amount.mul">

<ellipse fill="#edad56" stroke="#edad56" stroke-width="3" cx="793.57" cy="-18" rx="27" ry="18"/>
<text text-anchor="middle" x="793.57" y="-13.8" font-family="Times,serif" font-size="14.00">mul</text>
</g>
<!-- AurumV1core.depositToPool&#45;&gt;_amount.mul -->
<g id="edge1" class="edge" data-name="AurumV1core.depositToPool-&gt;_amount.mul">

<path fill="none" stroke="white" stroke-width="2" d="M1039.25,-111.17C983.34,-89.97 884.11,-52.34 830.46,-31.99"/>
<polygon fill="white" stroke="white" stroke-width="2" points="831.91,-28.79 821.31,-28.52 829.42,-35.34 831.91,-28.79"/>
</g>
<!-- AurumV1core.withdrawFromPool -->
<g id="node3" class="node" pointer-events="visible" data-name="AurumV1core.withdrawFromPool">

<ellipse fill="#ffbdb9" stroke="#ffbdb9" stroke-width="3" cx="950.33" cy="-612.11" rx="86.29" ry="18"/>
<text text-anchor="middle" x="950.33" y="-607.91" font-family="Times,serif" font-size="14.00">withdrawFromPool</text>
</g>
<!-- AurumV1core.depositERC721Collateral -->
<g id="node4" class="node" pointer-events="visible" data-name="AurumV1core.depositERC721Collateral">

<ellipse fill="#f2c383" stroke="#f2c383" stroke-width="3" cx="236.7" cy="-229.19" rx="110.05" ry="18"/>
<text text-anchor="middle" x="236.7" y="-224.99" font-family="Times,serif" font-size="14.00">depositERC721Collateral</text>
</g>
<!-- AurumV1core.depositERC721Collateral&#45;&gt;AurumV1core.address -->
<g id="edge8" class="edge" data-name="AurumV1core.depositERC721Collateral-&gt;AurumV1core.address">

<path fill="none" stroke="#1bc6a6" stroke-width="2" d="M263.71,-210.55C310.06,-178.56 404.63,-113.28 455.28,-78.32"/>
<polygon fill="#1bc6a6" stroke="#1bc6a6" stroke-width="2" points="457.25,-81.21 463.49,-72.65 453.28,-75.45 457.25,-81.21"/>
</g>
<!-- AurumV1core.IERC721Enumerable -->
<g id="node15" class="node" pointer-events="visible" data-name="AurumV1core.IERC721Enumerable">

<ellipse fill="#edad56" stroke="#edad56" stroke-width="3" cx="94.17" cy="-500.76" rx="94.34" ry="18"/>
<text text-anchor="middle" x="94.17" y="-496.56" font-family="Times,serif" font-size="14.00">IERC721Enumerable</text>
</g>
<!-- AurumV1core.depositERC721Collateral&#45;&gt;AurumV1core.IERC721Enumerable -->
<g id="edge3" class="edge" data-name="AurumV1core.depositERC721Collateral-&gt;AurumV1core.IERC721Enumerable">

<path fill="none" stroke="#1bc6a6" stroke-width="2" d="M226.68,-248.29C202.3,-294.74 139.73,-413.96 110.14,-470.34"/>
<polygon fill="#1bc6a6" stroke="#1bc6a6" stroke-width="2" points="107.14,-468.52 105.59,-479.01 113.34,-471.78 107.14,-468.52"/>
</g>
<!-- IERC721Enumerable.balanceOf --><g id="edge6" class="edge" data-name="AurumV1core.depositERC721Collateral-&gt;IERC721Enumerable.balanceOf" data-comment="IERC721Enumerable.balanceOf">

<path fill="none" stroke="white" stroke-width="2" d="M206.29,-210.49C193.52,-200.21 178.97,-187.32 167.2,-175.87" style=""/>
<polygon fill="white" stroke="white" stroke-width="2" points="169.73,-173.46 160.2,-168.83 164.77,-178.39 169.73,-173.46"/>
</g>
<g id="node19" class="node" pointer-events="visible" data-name="IERC721Enumerable.balanceOf">

<ellipse fill="#edad56" stroke="#edad56" stroke-width="3" cx="144.85" cy="-147.82" rx="50.92" ry="18"/>
<text text-anchor="middle" x="144.85" y="-143.62" font-family="Times,serif" font-size="14.00">balanceOf</text>
</g>
<!-- AurumV1core.depositERC721Collateral&#45;&gt;IERC721Enumerable.balanceOf -->
<g id="edge4" class="edge" data-name="AurumV1core.depositERC721Collateral-&gt;IERC721Enumerable.balanceOf">

<path fill="none" stroke="white" stroke-width="2" d="M223.41,-210.25C212.58,-198.91 196.86,-184.47 182.3,-172.3"/>
<polygon fill="white" stroke="white" stroke-width="2" points="184.79,-169.81 174.83,-166.21 180.37,-175.24 184.79,-169.81"/>
</g>
<!-- AurumV1core.depositERC721Collateral&#45;&gt;IERC721Enumerable.balanceOf -->

<!-- IERC721Enumerable.ownerOf -->
<g id="node20" class="node" pointer-events="visible" data-name="IERC721Enumerable.ownerOf">

<ellipse fill="#edad56" stroke="#edad56" stroke-width="3" cx="94.17" cy="-807.46" rx="45.22" ry="18"/>
<text text-anchor="middle" x="94.17" y="-803.26" font-family="Times,serif" font-size="14.00">ownerOf</text>
</g>
<!-- AurumV1core.depositERC721Collateral&#45;&gt;IERC721Enumerable.ownerOf -->
<g id="edge5" class="edge" data-name="AurumV1core.depositERC721Collateral-&gt;IERC721Enumerable.ownerOf">

<path fill="none" stroke="white" stroke-width="2" d="M231.96,-248.43C211.18,-332.73 128.06,-669.96 102.02,-775.63"/>
<polygon fill="white" stroke="white" stroke-width="2" points="98.65,-774.66 99.66,-785.21 105.45,-776.34 98.65,-774.66"/>
</g>
<!-- IERC721Enumerable.transferFrom -->
<g id="node21" class="node" pointer-events="visible" data-name="IERC721Enumerable.transferFrom">

<ellipse fill="#edad56" stroke="#edad56" stroke-width="3" cx="236.7" cy="-1079.03" rx="61.41" ry="18"/>
<text text-anchor="middle" x="236.7" y="-1074.83" font-family="Times,serif" font-size="14.00">transferFrom</text>
</g>
<!-- AurumV1core.depositERC721Collateral&#45;&gt;IERC721Enumerable.transferFrom -->
<g id="edge7" class="edge" data-name="AurumV1core.depositERC721Collateral-&gt;IERC721Enumerable.transferFrom">

<path fill="none" stroke="white" stroke-width="2" d="M236.7,-248.54C236.7,-358.77 236.7,-907.56 236.7,-1046.84"/>
<polygon fill="white" stroke="white" stroke-width="2" points="233.2,-1046.68 236.7,-1056.68 240.2,-1046.68 233.2,-1046.68"/>
</g>
<!-- AurumV1core.withdrawERC721Collateral --><g id="edge13" class="edge" data-name="AurumV1core.withdrawERC721Collateral-&gt;AurumV1core.address" data-comment="AurumV1core.withdrawERC721Collateral">

<path fill="none" stroke="#1bc6a6" stroke-width="2" d="M487.23,-1233.94C480.91,-1096.11 480.74,-261.96 486.73,-87.1" style=""/>
<polygon fill="#1bc6a6" stroke="#1bc6a6" stroke-width="2" points="490.22,-87.31 487.12,-77.18 483.23,-87.04 490.22,-87.31"/>
</g>
<g id="node5" class="node" pointer-events="visible" data-name="AurumV1core.withdrawERC721Collateral">

<ellipse fill="#f2c383" stroke="#f2c383" stroke-width="3" cx="489.11" cy="-1253.25" rx="118.7" ry="18"/>
<text text-anchor="middle" x="489.11" y="-1249.05" font-family="Times,serif" font-size="14.00">withdrawERC721Collateral</text>
</g>
<!-- AurumV1core.withdrawERC721Collateral&#45;&gt;AurumV1core.address -->
<g id="edge11" class="edge" data-name="AurumV1core.withdrawERC721Collateral-&gt;AurumV1core.address">

<path fill="none" stroke="#1bc6a6" stroke-width="2" d="M490.99,-1233.94C497.31,-1096.11 497.48,-261.96 491.49,-87.1"/>
<polygon fill="#1bc6a6" stroke="#1bc6a6" stroke-width="2" points="494.99,-87.04 491.1,-77.18 488,-87.31 494.99,-87.04"/>
</g>
<!-- AurumV1core.withdrawERC721Collateral&#45;&gt;AurumV1core.address -->

<!-- AurumV1core.withdrawERC721Collateral&#45;&gt;AurumV1core.IERC721Enumerable -->
<g id="edge9" class="edge" data-name="AurumV1core.withdrawERC721Collateral-&gt;AurumV1core.IERC721Enumerable">

<path fill="none" stroke="#1bc6a6" stroke-width="2" d="M478.95,-1233.89C425.44,-1131.93 176.21,-657.07 110.23,-531.36"/>
<polygon fill="#1bc6a6" stroke="#1bc6a6" stroke-width="2" points="113.42,-529.9 105.67,-522.67 107.22,-533.15 113.42,-529.9"/>
</g>
<!-- AurumV1core.withdrawERC721Collateral&#45;&gt;IERC721Enumerable.ownerOf -->
<g id="edge10" class="edge" data-name="AurumV1core.withdrawERC721Collateral-&gt;IERC721Enumerable.ownerOf">

<path fill="none" stroke="white" stroke-width="2" d="M472.14,-1234.1C409.64,-1163.54 192.09,-917.99 118.62,-835.06"/>
<polygon fill="white" stroke="white" stroke-width="2" points="121.46,-832.99 112.21,-827.82 116.22,-837.63 121.46,-832.99"/>
</g>
<!-- AurumV1core.withdrawERC721Collateral&#45;&gt;IERC721Enumerable.transferFrom -->
<g id="edge12" class="edge" data-name="AurumV1core.withdrawERC721Collateral-&gt;IERC721Enumerable.transferFrom">

<path fill="none" stroke="white" stroke-width="2" d="M461.62,-1234.27C415.79,-1202.64 323.79,-1139.14 272.8,-1103.94"/>
<polygon fill="white" stroke="white" stroke-width="2" points="274.98,-1101.2 264.76,-1098.4 271,-1106.96 274.98,-1101.2"/>
</g>
<!-- AurumV1core.borrow -->
<g id="node6" class="node" pointer-events="visible" data-name="AurumV1core.borrow">

<ellipse fill="#ffbdb9" stroke="brown" stroke-width="3" cx="1283.72" cy="-951.9" rx="38.86" ry="18"/>
<text text-anchor="middle" x="1283.72" y="-947.7" font-family="Times,serif" font-size="14.00">borrow</text>
</g>
<!-- AurumV1core.borrow&#45;&gt;AurumV1core.depositERC721Collateral -->
<g id="edge18" class="edge" data-name="AurumV1core.borrow-&gt;AurumV1core.depositERC721Collateral">

<path fill="none" stroke="#1bc6a6" stroke-width="2" d="M1260.88,-936.13C1126.92,-843.67 443.44,-371.9 274.5,-255.28"/>
<polygon fill="#1bc6a6" stroke="#1bc6a6" stroke-width="2" points="276.62,-252.49 266.4,-249.69 272.64,-258.25 276.62,-252.49"/>
</g>
<!-- AurumV1core.getNftCollateralValue -->
<g id="node8" class="node" pointer-events="visible" data-name="AurumV1core.getNftCollateralValue">

<ellipse fill="#edad56" stroke="#edad56" stroke-width="3" cx="1357.12" cy="-654.11" rx="96.68" ry="18"/>
<text text-anchor="middle" x="1357.12" y="-649.91" font-family="Times,serif" font-size="14.00">getNftCollateralValue</text>
</g>
<!-- AurumV1core.borrow&#45;&gt;AurumV1core.getNftCollateralValue -->
<g id="edge14" class="edge" data-name="AurumV1core.borrow-&gt;AurumV1core.getNftCollateralValue">

<path fill="none" stroke="#1bc6a6" stroke-width="2" d="M1288.42,-932.82C1300.74,-882.83 1334.06,-747.65 1349.31,-685.79"/>
<polygon fill="#1bc6a6" stroke="#1bc6a6" stroke-width="2" points="1352.64,-686.9 1351.63,-676.36 1345.84,-685.23 1352.64,-686.9"/>
</g>
<!-- AurumV1core.IERC165 -->
<g id="node16" class="node" pointer-events="visible" data-name="AurumV1core.IERC165">

<ellipse fill="#edad56" stroke="#edad56" stroke-width="3" cx="1080.34" cy="-1181.46" rx="47.54" ry="18"/>
<text text-anchor="middle" x="1080.34" y="-1177.26" font-family="Times,serif" font-size="14.00">IERC165</text>
</g>
<!-- AurumV1core.borrow&#45;&gt;AurumV1core.IERC165 -->
<g id="edge16" class="edge" data-name="AurumV1core.borrow-&gt;AurumV1core.IERC165">

<path fill="none" stroke="#1bc6a6" stroke-width="2" d="M1268.1,-969.53C1233,-1009.14 1147.66,-1105.47 1105.2,-1153.41"/>
<polygon fill="#1bc6a6" stroke="#1bc6a6" stroke-width="2" points="1102.6,-1151.06 1098.58,-1160.87 1107.84,-1155.7 1102.6,-1151.06"/>
</g>
<!-- AurumV1core.type -->
<g id="node17" class="node" pointer-events="visible" data-name="AurumV1core.type">

<ellipse fill="#edad56" stroke="#edad56" stroke-width="3" cx="1283.72" cy="-356.32" rx="27.83" ry="18"/>
<text text-anchor="middle" x="1283.72" y="-352.12" font-family="Times,serif" font-size="14.00">type</text>
</g>
<!-- AurumV1core.borrow&#45;&gt;AurumV1core.type -->
<g id="edge17" class="edge" data-name="AurumV1core.borrow-&gt;AurumV1core.type">

<path fill="none" stroke="#1bc6a6" stroke-width="2" d="M1283.72,-932.42C1283.72,-845.99 1283.72,-496.68 1283.72,-388.45"/>
<polygon fill="#1bc6a6" stroke="#1bc6a6" stroke-width="2" points="1287.22,-388.68 1283.72,-378.68 1280.22,-388.68 1287.22,-388.68"/>
</g>
<!-- AurumV1core.borrow&#45;&gt;_amount.mul -->
<g id="edge19" class="edge" data-name="AurumV1core.borrow-&gt;_amount.mul">

<path fill="none" stroke="white" stroke-width="2" d="M1273.93,-933.24C1212.9,-816.96 884.81,-191.83 809.14,-47.67"/>
<polygon fill="white" stroke="white" stroke-width="2" points="812.34,-46.22 804.59,-39 806.14,-49.48 812.34,-46.22"/>
</g>
<!-- collateralValue.mul -->
<g id="node22" class="node" pointer-events="visible" data-name="collateralValue.mul">

<ellipse fill="#edad56" stroke="#edad56" stroke-width="3" cx="1371.38" cy="-997.9" rx="27" ry="18"/>
<text text-anchor="middle" x="1371.38" y="-993.7" font-family="Times,serif" font-size="14.00">mul</text>
</g>
<!-- AurumV1core.borrow&#45;&gt;collateralValue.mul -->
<g id="edge15" class="edge" data-name="AurumV1core.borrow-&gt;collateralValue.mul">

<path fill="none" stroke="white" stroke-width="2" d="M1310.97,-966.2C1319.34,-970.59 1328.64,-975.47 1337.39,-980.07"/>
<polygon fill="white" stroke="white" stroke-width="2" points="1335.69,-983.12 1346.17,-984.67 1338.94,-976.93 1335.69,-983.12"/>
</g>
<!-- AurumV1core.repay -->
<g id="node7" class="node" pointer-events="visible" data-name="AurumV1core.repay">

<ellipse fill="#ffbdb9" stroke="brown" stroke-width="3" cx="793.57" cy="-1290.22" rx="32.46" ry="18"/>
<text text-anchor="middle" x="793.57" y="-1286.02" font-family="Times,serif" font-size="14.00">repay</text>
</g>
<!-- AurumV1core.repay&#45;&gt;AurumV1core.withdrawERC721Collateral -->
<g id="edge22" class="edge" data-name="AurumV1core.repay-&gt;AurumV1core.withdrawERC721Collateral">

<path fill="none" stroke="#1bc6a6" stroke-width="2" d="M760.41,-1286.19C721.58,-1281.48 655.27,-1273.43 597.93,-1266.46"/>
<polygon fill="#1bc6a6" stroke="#1bc6a6" stroke-width="2" points="598.44,-1263 588.09,-1265.27 597.6,-1269.95 598.44,-1263"/>
</g>
<!-- AurumV1core.repay&#45;&gt;AurumV1core.address -->
<g id="edge23" class="edge" data-name="AurumV1core.repay-&gt;AurumV1core.address">

<path fill="none" stroke="#1bc6a6" stroke-width="2" d="M788.91,-1271.31C754.55,-1131.9 540.58,-263.78 496.89,-86.55"/>
<polygon fill="#1bc6a6" stroke="#1bc6a6" stroke-width="2" points="500.29,-85.72 494.5,-76.85 493.5,-87.4 500.29,-85.72"/>
</g>
<!-- AurumV1core.repay&#45;&gt;AurumV1core.IERC165 -->
<g id="edge20" class="edge" data-name="AurumV1core.repay-&gt;AurumV1core.IERC165">

<path fill="none" stroke="#1bc6a6" stroke-width="2" d="M821.85,-1279.49C871.06,-1260.83 972.9,-1222.21 1033.02,-1199.41"/>
<polygon fill="#1bc6a6" stroke="#1bc6a6" stroke-width="2" points="1034.24,-1202.69 1042.35,-1195.87 1031.76,-1196.14 1034.24,-1202.69"/>
</g>
<!-- AurumV1core.repay&#45;&gt;AurumV1core.type -->
<g id="edge21" class="edge" data-name="AurumV1core.repay-&gt;AurumV1core.type">

<path fill="none" stroke="#1bc6a6" stroke-width="2" d="M803.36,-1271.56C864.39,-1155.28 1192.48,-530.15 1268.15,-385.99"/>
<polygon fill="#1bc6a6" stroke="#1bc6a6" stroke-width="2" points="1271.15,-387.8 1272.7,-377.32 1264.95,-384.55 1271.15,-387.8"/>
</g>
<!-- AurumV1core.getNFTPrice -->
<g id="node9" class="node" pointer-events="visible" data-name="AurumV1core.getNFTPrice">

<ellipse fill="#edad56" stroke="#edad56" stroke-width="3" cx="1490.04" cy="-654.11" rx="60.84" ry="18"/>
<text text-anchor="middle" x="1490.04" y="-649.91" font-family="Times,serif" font-size="14.00">getNFTPrice</text>
</g>
<!-- AurumV1core.getNftCollateralValue&#45;&gt;AurumV1core.getNFTPrice -->
<g id="edge24" class="edge" data-name="AurumV1core.getNftCollateralValue-&gt;AurumV1core.getNFTPrice">

<path fill="none" stroke="#1bc6a6" stroke-width="2" d="M1455.11,-654.11C1455.19,-654.11 1455.27,-654.11 1455.35,-654.11"/>
<polygon fill="#1bc6a6" stroke="#1bc6a6" stroke-width="2" points="1442.55,-657.62 1452.55,-654.11 1442.55,-650.62 1442.55,-657.62"/>
</g>
<!-- AurumV1core.getNftCollateralValue&#45;&gt;AurumV1core.IERC165 -->
<g id="edge25" class="edge" data-name="AurumV1core.getNftCollateralValue-&gt;AurumV1core.IERC165">

<path fill="none" stroke="#1bc6a6" stroke-width="2" d="M1346.94,-673.5C1305.22,-752.98 1147.16,-1054.15 1096.25,-1151.15"/>
<polygon fill="#1bc6a6" stroke="#1bc6a6" stroke-width="2" points="1093.27,-1149.29 1091.73,-1159.77 1099.47,-1152.54 1093.27,-1149.29"/>
</g>
<!-- AurumV1core.getNftCollateralValue&#45;&gt;AurumV1core.type -->
<g id="edge26" class="edge" data-name="AurumV1core.getNftCollateralValue-&gt;AurumV1core.type">

<path fill="none" stroke="#1bc6a6" stroke-width="2" d="M1352.41,-635.03C1340.06,-584.92 1306.61,-449.21 1291.42,-387.56"/>
<polygon fill="#1bc6a6" stroke="#1bc6a6" stroke-width="2" points="1294.9,-387.06 1289.11,-378.18 1288.1,-388.73 1294.9,-387.06"/>
</g>
<!-- AurumV1core.set_Borrow_InterestRate -->
<g id="node10" class="node" pointer-events="visible" data-name="AurumV1core.set_Borrow_InterestRate">

<ellipse fill="#ffbdb9" stroke="#ffbdb9" stroke-width="3" cx="864.33" cy="-504.11" rx="107.66" ry="18"/>
<text text-anchor="middle" x="864.33" y="-499.91" font-family="Times,serif" font-size="14.00">set_Borrow_InterestRate</text>
</g>
<!-- AurumV1core.setLoanToCollateral -->
<g id="node11" class="node" pointer-events="visible" data-name="AurumV1core.setLoanToCollateral">

<ellipse fill="#ffbdb9" stroke="#ffbdb9" stroke-width="3" cx="846.33" cy="-828.11" rx="90.32" ry="18"/>
<text text-anchor="middle" x="846.33" y="-823.91" font-family="Times,serif" font-size="14.00">setLoanToCollateral</text>
</g>
<!-- AurumV1core.&lt;Fallback&gt; -->
<g id="node12" class="node" pointer-events="visible" data-name="AurumV1core.&lt;Fallback&gt;">

<ellipse fill="#ffbdb9" stroke="brown" stroke-width="3" cx="865.33" cy="-936.11" rx="55.36" ry="18"/>
<text text-anchor="middle" x="865.33" y="-931.91" font-family="Times,serif" font-size="14.00">&lt;Fallback&gt;</text>
</g>
<!-- AurumV1core.&lt;Receive Ether&gt; -->
<g id="node13" class="node" pointer-events="visible" data-name="AurumV1core.&lt;Receive Ether&gt;">

<ellipse fill="#ffbdb9" stroke="brown" stroke-width="3" cx="886.33" cy="-396.11" rx="76.21" ry="18"/>
<text text-anchor="middle" x="886.33" y="-391.91" font-family="Times,serif" font-size="14.00">&lt;Receive Ether&gt;</text>
</g>
<!-- key -->
<g id="node23" class="node" pointer-events="visible" data-name="key">

<polygon fill="#edad56" stroke="none" stroke-width="3" points="1156.33,-304.11 1026.33,-304.11 1026.33,-216.11 1156.33,-216.11 1156.33,-304.11"/>
<text text-anchor="start" x="1075.97" y="-285.51" font-family="Times,serif" font-size="14.00">Internal Call</text>
<text text-anchor="start" x="1072.08" y="-265.51" font-family="Times,serif" font-size="14.00">External Call</text>
<text text-anchor="start" x="1049.54" y="-245.51" font-family="Times,serif" font-size="14.00">Defined Contract</text>
<text text-anchor="start" x="1035.94" y="-225.51" font-family="Times,serif" font-size="14.00">Undefined Contract</text>
</g>
<!-- key2 --><g id="edge28" class="edge" data-name="key-&gt;key2" data-comment="key2">

<path fill="none" stroke="white" stroke-width="2" d="M1148.33,-270.11C1148.33,-270.11 1218.07,-270.11 1247.49,-270.11" style=""/>
<polygon fill="white" stroke="white" stroke-width="2" points="1247.31,-273.61 1257.31,-270.11 1247.31,-266.61 1247.31,-273.61"/>
</g>
<g id="node24" class="node" pointer-events="visible" data-name="key2">

<polygon fill="#edad56" stroke="none" stroke-width="3" points="1299.33,-304.11 1245.33,-304.11 1245.33,-216.11 1299.33,-216.11 1299.33,-304.11"/>
<text text-anchor="start" x="1262.33" y="-285.51" font-family="Times,serif" font-size="14.00">   </text>
<text text-anchor="start" x="1262.33" y="-265.51" font-family="Times,serif" font-size="14.00">   </text>
<polygon fill="#445773" stroke="none" points="1260.33,-240.11 1260.33,-260.11 1285.33,-260.11 1285.33,-240.11 1260.33,-240.11"/>
<text text-anchor="start" x="1262.33" y="-245.51" font-family="Times,serif" font-size="14.00">   </text>
<polygon fill="none" stroke="#e8726d" points="1262.33,-222.11 1262.33,-238.11 1283.33,-238.11 1283.33,-222.11 1262.33,-222.11"/>
</g><!-- key&#45;&gt;key2 --><g id="edge27" class="edge" data-name="key-&gt;key2">

<path fill="none" stroke="#1bc6a6" stroke-width="2" d="M1148.33,-290.11C1148.33,-290.11 1218.07,-290.11 1247.49,-290.11"/>
<polygon fill="#1bc6a6" stroke="#1bc6a6" stroke-width="2" points="1247.31,-293.61 1257.31,-290.11 1247.31,-286.61 1247.31,-293.61"/>
</g><!-- key&#45;&gt;key2 --></g>
</svg>